<svg xmlns="http://www.w3.org/2000/svg" width="26.39" height="26.39" viewBox="0 0 26.39 26.39">
  <path id="Icon_awesome-key" data-name="Icon awesome-key" d="M26.39,9.072a9.076,9.076,0,0,1-10.763,8.913l-1.238,1.392a1.237,1.237,0,0,1-.925.415H11.546v2.062a1.237,1.237,0,0,1-1.237,1.237H8.247v2.062A1.237,1.237,0,0,1,7.01,26.39H1.237A1.237,1.237,0,0,1,0,25.153V21.129a1.237,1.237,0,0,1,.362-.875l8.34-8.34A9.072,9.072,0,1,1,26.39,9.072ZM17.318,6.6a2.474,2.474,0,1,0,2.474-2.474A2.474,2.474,0,0,0,17.318,6.6Z" fill="#fff"/>
</svg>
