<svg xmlns="http://www.w3.org/2000/svg" width="31.5" height="36" viewBox="0 0 31.5 36">
  <path id="Icon_awesome-apple-alt" data-name="Icon awesome-apple-alt" d="M24.669,9.07a6.889,6.889,0,0,1,4.494,2.953,13.178,13.178,0,0,1,2.107,5.484,17.487,17.487,0,0,1-.07,6.047,19,19,0,0,1-3.371,8.367A9.108,9.108,0,0,1,20.244,36a5.332,5.332,0,0,1-2.458-.7,3.969,3.969,0,0,0-4.074,0,5.332,5.332,0,0,1-2.458.7A9.108,9.108,0,0,1,3.67,31.922,19,19,0,0,1,.3,23.555a17.487,17.487,0,0,1-.07-6.047,13.178,13.178,0,0,1,2.107-5.484A6.889,6.889,0,0,1,6.829,9.07a11.732,11.732,0,0,1,4.635.492,19.469,19.469,0,0,1,4.284,1.688,19.469,19.469,0,0,1,4.284-1.687,11.74,11.74,0,0,1,4.636-.492ZM20.806,6.188a5.945,5.945,0,0,1-2.6,1.336,8.2,8.2,0,0,1-2.458.352L14.7,7.8a9.023,9.023,0,0,1,0-2.25,6.272,6.272,0,0,1,1.615-3.867A5.945,5.945,0,0,1,18.91.352,8.2,8.2,0,0,1,21.368,0l1.053.07.07,1.055a8.247,8.247,0,0,1-.351,2.461,5.944,5.944,0,0,1-1.335,2.6Z" transform="translate(0.001)" fill="#fff"/>
</svg>
