<svg xmlns="http://www.w3.org/2000/svg" width="28.632" height="36" viewBox="0 0 28.632 36">
  <path id="Icon_simple-raspberrypi" data-name="Icon simple-raspberrypi" d="M24.167,26.007c-1.285,1.483-2,4.185-1.063,5.056.894.674,3.3.587,5.077-1.845A4.571,4.571,0,0,0,28.3,24.16c-1.095-.833-2.667.246-4.135,1.865Zm-12.085.45c-1.362-1.56-3.132-2.487-4.277-1.8-.765.573-.907,2.528.185,4.451,1.617,2.286,3.894,2.518,4.832,1.961C13.809,30.338,13.271,27.864,12.081,26.457Zm6.158,4.718c-1.655-.039-4.2.659-4.164,1.548-.027.6,2,2.358,4.057,2.27,1.989.045,4.049-1.708,4.023-2.473-.006-.785-2.247-1.39-3.91-1.326l-.006-.018Zm-.112-20.916c-1.913-.048-3.753,1.4-3.753,2.24-.006,1.02,1.512,2.064,3.765,2.091,2.315.015,3.777-.839,3.8-1.89.024-1.191-2.091-2.458-3.777-2.441h-.033Zm-4.607.8c-3.2-.517-5.87,1.35-5.763,4.788.105,1.326,6.945-4.562,5.765-4.766Zm14.624,4.877c.107-3.415-2.563-5.281-5.766-4.764C21.2,11.372,28.035,17.261,28.143,15.933Zm.546,1.236c-1.858-.493-.63,7.573.882,6.923a4.314,4.314,0,0,0-.882-6.9v-.022ZM6.342,24.181c1.51.675,2.741-7.393.884-6.9A4.337,4.337,0,0,0,6.342,24.2v-.022Zm14.123-8.922c-1.719,1.125-2.031,3.642-.691,5.619S23.588,23.6,25.31,22.5s2.029-3.618.693-5.619-3.818-2.719-5.538-1.594V15.26Zm-4.644.2c-1.719-1.1-4.2-.381-5.533,1.6-1.338,2-1.029,4.518.691,5.642s4.2.4,5.536-1.6c1.327-1.977,1.013-4.5-.7-5.618l0-.024ZM22.374,26.2A3.967,3.967,0,0,0,18.2,22.452a3.984,3.984,0,0,0-4.131,3.8v.044a3.971,3.971,0,0,0,4.174,3.753,3.941,3.941,0,0,0,4.113-3.775v-.044l.015-.022Zm4.813-22.7C23.727,5.282,21.709,6.7,20.6,7.913c.566,2.247,3.516,2.337,4.594,2.268a.791.791,0,0,1-.472-.4c.27-.18,1.232-.024,1.9-.382-.257-.045-.378-.092-.493-.292a5.4,5.4,0,0,0,1.712-.7,1.056,1.056,0,0,1-.7-.135,6.783,6.783,0,0,0,1.642-.987c-.294,0-.609,0-.7-.113A5.718,5.718,0,0,0,29.4,6.114c-.408.068-.585.024-.681-.045a4.764,4.764,0,0,0,1.124-1.215.86.86,0,0,1-.783,0c.136-.291.7-.471,1.035-1.168a1.471,1.471,0,0,1-.729,0A3.609,3.609,0,0,1,30.023,2.4a13.369,13.369,0,0,1-1.676-.043l.424-.428a3.335,3.335,0,0,0-1.854.18c-.223-.158,0-.382.278-.608a7.129,7.129,0,0,0-1.551.384c-.246-.225.157-.428.36-.654a4.405,4.405,0,0,0-1.641.63c-.27-.248-.022-.471.156-.673a4.249,4.249,0,0,0-1.371.852c-.135-.156-.313-.268-.09-.674a3.568,3.568,0,0,0-1.1.944c-.291-.2-.178-.449-.178-.674a11.711,11.711,0,0,0-1.191,1.217c-.091-.046-.157-.225-.2-.519-1.168,1.125-2.833,3.934-.427,5.034a22.7,22.7,0,0,1,7.169-3.754l.062-.112ZM8.8,3.506a22.389,22.389,0,0,1,7.166,3.777c2.394-1.125.74-3.934-.423-5.034-.061.291-.127.493-.2.539a12.548,12.548,0,0,0-1.182-1.215c0,.225.116.5-.175.675A3.412,3.412,0,0,0,12.894,1.3c.224.384.038.5-.084.674a3.72,3.72,0,0,0-1.349-.9c.18.224.45.45.18.7a4.263,4.263,0,0,0-1.617-.63c.2.224.606.45.357.675a6.466,6.466,0,0,0-1.552-.387c.271.225.513.433.288.607a3.253,3.253,0,0,0-1.883-.2l.426.426a11.872,11.872,0,0,1-1.681.053A3.255,3.255,0,0,1,6.632,3.6c-.068.068-.405.024-.725,0,.338.674.9.855,1.032,1.148a.84.84,0,0,1-.785,0A6.4,6.4,0,0,0,7.277,5.96a1.027,1.027,0,0,1-.7.056,5.946,5.946,0,0,0,1.3,1.056c-.09.105-.406.1-.719.113a6.773,6.773,0,0,0,1.641.995.968.968,0,0,1-.7.158,5.222,5.222,0,0,0,1.708.7.613.613,0,0,1-.516.292c.674.381,1.617.2,1.887.4a.79.79,0,0,1-.471.4c1.078.068,4.045-.023,4.608-2.271-1.1-1.21-3.126-2.628-6.587-4.381l.06.024ZM11.4.154a3.1,3.1,0,0,1,.978.3c.793-.255.975.095,1.365.238.866-.18,1.128.211,1.543.628l.483-.013a5.435,5.435,0,0,1,2.185,3.1,5.4,5.4,0,0,1,2.185-3.1l.482.01C21.037.9,21.3.511,22.165.693c.392-.158.57-.5,1.367-.249.5-.156.93-.562,1.586-.067a1.383,1.383,0,0,1,1.567.135c.743-.09.979.091,1.161.315.162,0,1.214-.156,1.7.54,1.215-.135,1.6.7,1.161,1.482a1.011,1.011,0,0,1-.075,1.463c.225.4.093.83-.405,1.37a1.114,1.114,0,0,1-.561,1.259c.09.765-.72,1.215-.944,1.371-.091.45-.271.876-1.192,1.1-.133.674-.7.785-1.236.921a5.693,5.693,0,0,1,3.282,5.6l.271.448a5.481,5.481,0,0,1,1.011,8.271,14.856,14.856,0,0,1-.767,2.472,6.067,6.067,0,0,1-3.841,4.831A12.573,12.573,0,0,1,22.585,34a6.141,6.141,0,0,1-4.491,2h-.138a6.182,6.182,0,0,1-4.518-2,12.673,12.673,0,0,1-3.67-2.045,6.091,6.091,0,0,1-3.843-4.831,15.145,15.145,0,0,1-.777-2.493,5.478,5.478,0,0,1,1-8.272l.258-.45a5.694,5.694,0,0,1,3.282-5.6c-.538-.135-1.08-.248-1.234-.922-.923-.225-1.1-.651-1.193-1.1C7.035,8.13,6.226,7.682,6.316,6.9a1.135,1.135,0,0,1-.562-1.281c-.471-.519-.606-.967-.405-1.372a1,1,0,0,1-.068-1.461C4.854,1.993,5.236,1.14,6.45,1.275,6.921.577,7.98.737,8.134.737,8.316.512,8.562.309,9.3.4A1.421,1.421,0,0,1,10.876.246.976.976,0,0,1,11.485,0Z" transform="translate(-3.683)" fill="#d3d3d3"/>
</svg>
