<?xml version="1.0" encoding="utf-8"?>
<!-- Generator: Adobe Illustrator 24.1.1, SVG Export Plug-In . SVG Version: 6.00 Build 0)  -->
<svg version="1.1" id="Layer_1" xmlns="http://www.w3.org/2000/svg" xmlns:xlink="http://www.w3.org/1999/xlink" x="0px" y="0px"
	 viewBox="0 0 599.8 378.4" style="enable-background:new 0 0 599.8 378.4;" xml:space="preserve">
<style type="text/css">
	.st0{display:none;}
	.st1{display:inline;fill:#DEB343;}
	.st2{display:inline;opacity:0.71;}
	.st3{clip-path:url(#SVGID_2_);fill:#FFFFFF;}
	.st4{clip-path:url(#SVGID_4_);}
	.st5{opacity:0.35;}
	.st6{fill:url(#SVGID_5_);}
	.st7{fill:url(#SVGID_6_);}
	.st8{clip-path:url(#SVGID_8_);}
	.st9{fill:#29540D;}
	.st10{fill:#2F5B06;}
	.st11{opacity:0.55;fill:url(#SVGID_9_);enable-background:new    ;}
	.st12{fill:#008040;}
	.st13{fill:url(#SVGID_10_);}
	.st14{fill:url(#SVGID_11_);}
	.st15{fill:url(#SVGID_12_);}
	.st16{fill:url(#SVGID_13_);}
	.st17{fill:#FFFFFF;}
	.st18{fill:url(#SVGID_14_);}
	.st19{fill:url(#SVGID_15_);}
	.st20{fill:url(#SVGID_16_);}
	.st21{fill:url(#SVGID_17_);}
	.st22{fill:url(#SVGID_18_);}
	.st23{fill:url(#SVGID_19_);}
	.st24{display:none;fill:#260C4F;}
	.st25{display:inline;}
	.st26{fill:#260C4F;}
	.st27{fill:url(#SVGID_20_);}
	.st28{fill:url(#SVGID_21_);}
	.st29{fill:url(#SVGID_22_);}
	.st30{fill:url(#SVGID_23_);}
	.st31{fill:url(#SVGID_24_);}
	.st32{opacity:0.82;fill:url(#SVGID_25_);enable-background:new    ;}
	.st33{opacity:0.82;fill:url(#SVGID_26_);enable-background:new    ;}
	.st34{fill:url(#SVGID_27_);}
	.st35{fill:url(#SVGID_28_);}
	.st36{fill:url(#SVGID_29_);}
	.st37{fill:#885637;}
	.st38{fill:#714C38;}
	.st39{opacity:0.22;fill:#603813;enable-background:new    ;}
	.st40{fill:url(#SVGID_30_);}
	.st41{fill:url(#SVGID_31_);}
	.st42{fill:url(#SVGID_32_);}
	.st43{fill:url(#SVGID_33_);}
	.st44{fill:url(#SVGID_34_);}
	.st45{fill:url(#SVGID_35_);}
	.st46{fill:url(#SVGID_36_);}
	.st47{fill:url(#SVGID_37_);}
	.st48{fill:url(#SVGID_38_);}
	.st49{fill:url(#SVGID_39_);}
	.st50{opacity:0.49;fill:url(#SVGID_40_);enable-background:new    ;}
	.st51{fill:url(#SVGID_41_);}
	.st52{fill:#0C4B4F;}
	.st53{fill:#C7DC5E;}
	.st54{opacity:0.28;fill:url(#SVGID_42_);enable-background:new    ;}
	.st55{opacity:0.17;fill:url(#SVGID_43_);enable-background:new    ;}
	.st56{fill:url(#SVGID_44_);}
	.st57{fill:url(#SVGID_45_);}
	.st58{fill:url(#SVGID_46_);}
	.st59{fill:url(#SVGID_47_);}
	.st60{fill:url(#SVGID_48_);}
</style>
<g id="BACKGROUND" class="st0">
	<rect x="-75" y="-62.3" class="st1" width="750" height="500"/>
	<g class="st2">
		
			<image style="overflow:visible;enable-background:new    ;" width="672" height="452" xlink:href="BBEC0FD6.png"  transform="matrix(1 0 0 1 -36 -27.2941)">
		</image>
	</g>
</g>
<g id="OBJECTS">
	<g>
		<g>
			<defs>
				<rect id="SVGID_1_" y="-0.3" width="600" height="379"/>
			</defs>
			<clipPath id="SVGID_2_">
				<use xlink:href="#SVGID_1_"  style="overflow:visible;"/>
			</clipPath>
			<rect y="-0.3" class="st3" width="600" height="379"/>
		</g>
		<g>
			<defs>
				<rect id="SVGID_3_" y="-0.3" width="600" height="379"/>
			</defs>
			<clipPath id="SVGID_4_">
				<use xlink:href="#SVGID_3_"  style="overflow:visible;"/>
			</clipPath>
			<g class="st4">
				<g>
					<g class="st5">
						<path d="M212.9,357.7"/>
					</g>
					<g>
						
							<linearGradient id="SVGID_5_" gradientUnits="userSpaceOnUse" x1="209.85" y1="22.6759" x2="209.85" y2="22.6759" gradientTransform="matrix(1 0 0 -1 0 377.4118)">
							<stop  offset="0" style="stop-color:#3A7B05"/>
							<stop  offset="1" style="stop-color:#C7DC5E"/>
						</linearGradient>
						<path class="st6" d="M209.9,354.7"/>
					</g>
				</g>
				
					<linearGradient id="SVGID_6_" gradientUnits="userSpaceOnUse" x1="199.0428" y1="29.1759" x2="199.0428" y2="29.1759" gradientTransform="matrix(0.9997 -2.310000e-02 -2.310000e-02 -0.9997 8.1409 375.1609)">
					<stop  offset="0" style="stop-color:#3A7B05"/>
					<stop  offset="1" style="stop-color:#C7DC5E"/>
				</linearGradient>
				<path class="st7" d="M206.5,341.4"/>
				<g>
					<g>
						<defs>
							<path id="SVGID_7_" d="M600,379.6H322.6c-51.7,4.1-112.8-83.5-47.6-133.1c87.6-66.6,18.6-120.2-32-137.2
								c-43.4-14.6-73.5-68.9,3.3-109.4H600V379.6z"/>
						</defs>
						<clipPath id="SVGID_8_">
							<use xlink:href="#SVGID_7_"  style="overflow:visible;"/>
						</clipPath>
						<g class="st8">
							<circle class="st9" cx="268.5" cy="288.4" r="1.7"/>
							<path class="st10" d="M254.7,305.7c0,1.1-0.9,2.1-2,2.1c-1.1,0-2.1-0.9-2.1-2c0-1.1,0.9-2.1,2-2.1
								C253.7,303.7,254.6,304.6,254.7,305.7z"/>
							
								<linearGradient id="SVGID_9_" gradientUnits="userSpaceOnUse" x1="226.3283" y1="553.553" x2="607.3782" y2="899.751" gradientTransform="matrix(1 0 0 1 0 -576)">
								<stop  offset="0" style="stop-color:#EAE46C"/>
								<stop  offset="0.8415" style="stop-color:#94C133"/>
							</linearGradient>
							<path class="st11" d="M623,383.6H329.7c-54.7,4.1-119.3-84.4-50.3-134.5c92.6-67.3,19.6-121.4-33.9-138.7
								C199.6,95.6,167.8,40.7,249-0.2h374V383.6z"/>
							<path class="st12" d="M292.6,371.8"/>
							
								<linearGradient id="SVGID_10_" gradientUnits="userSpaceOnUse" x1="542.37" y1="218.7359" x2="622.89" y2="218.7359" gradientTransform="matrix(1 0 0 -1 0 377.4118)">
								<stop  offset="0" style="stop-color:#FFFFFF;stop-opacity:0.1"/>
								<stop  offset="1" style="stop-color:#FFFFFF"/>
							</linearGradient>
							<path class="st13" d="M594.7,120.3c-15.6,0-28.2,12.6-28.2,28.2c0,1.4,0.1,2.9,0.3,4.3c-0.7-0.1-1.5-0.1-2.2-0.1
								c-12.3,0-22.2,9.9-22.2,22.2s9.9,22.2,22.2,22.2c12,0,21.8-9.5,22.2-21.4c2.5,0.7,5.2,1.1,7.9,1.1
								c15.6,0,28.2-12.6,28.2-28.2S610.3,120.3,594.7,120.3z"/>
							
								<linearGradient id="SVGID_11_" gradientUnits="userSpaceOnUse" x1="527.31" y1="166.0559" x2="572.47" y2="166.0559" gradientTransform="matrix(1 0 0 -1 0 377.4118)">
								<stop  offset="0" style="stop-color:#FFFFFF"/>
								<stop  offset="1" style="stop-color:#FFFFFF;stop-opacity:0.1"/>
							</linearGradient>
							<circle class="st14" cx="549.9" cy="211.4" r="22.6"/>
							
								<linearGradient id="SVGID_12_" gradientUnits="userSpaceOnUse" x1="319.2965" y1="141.9005" x2="372.9533" y2="208.2679" gradientTransform="matrix(1 0 0 -1 0 377.4118)">
								<stop  offset="0" style="stop-color:#FFFFFF"/>
								<stop  offset="1" style="stop-color:#FFFFFF;stop-opacity:0.1"/>
							</linearGradient>
							<path class="st15" d="M406.1,217.9c0.1-0.7,0.1-1.3,0.1-2c0-8-5.6-14.7-13.1-16.5c0.2-1.1,0.3-2.3,0.3-3.5
								c0-12.1-9.8-21.8-21.8-21.8c-1.3,0-2.6,0.1-3.8,0.3c-1-29-24.9-52.3-54.1-52.3c-29.9,0-54.2,24.3-54.2,54.2
								s24.3,54.2,54.2,54.2c16.9,0,32-7.7,41.9-19.8c4,4.3,9.7,7,16,7c0.3,0,0.6,0,0.9,0c0.3,2.8-3.2,5.4-1.7,7.6
								c-5,5.3-3.6,12.4-3.6,20.3c0,16.2,13.1,29.3,29.4,29.3s29.4-13.1,29.4-29.3C425.8,232.8,417.6,221.9,406.1,217.9z"/>
							
								<linearGradient id="SVGID_13_" gradientUnits="userSpaceOnUse" x1="249.57" y1="190.7959" x2="337.75" y2="190.7959" gradientTransform="matrix(1 0 0 -1 0 377.4118)">
								<stop  offset="0" style="stop-color:#FFFFFF"/>
								<stop  offset="1" style="stop-color:#FFFFFF;stop-opacity:0.1"/>
							</linearGradient>
							<circle class="st16" cx="293.7" cy="186.6" r="44.1"/>
							<circle class="st17" cx="328.5" cy="218.2" r="36.5"/>
							
								<linearGradient id="SVGID_14_" gradientUnits="userSpaceOnUse" x1="333.36" y1="148.2959" x2="383" y2="148.2959" gradientTransform="matrix(1 0 0 -1 0 377.4118)">
								<stop  offset="0" style="stop-color:#FFFFFF;stop-opacity:0.1"/>
								<stop  offset="1" style="stop-color:#FFFFFF"/>
							</linearGradient>
							<circle class="st18" cx="358.2" cy="229.1" r="24.8"/>
							
								<linearGradient id="SVGID_15_" gradientUnits="userSpaceOnUse" x1="320.2376" y1="155.6632" x2="510.2344" y2="66.4171" gradientTransform="matrix(1 0 0 -1 0 377.4118)">
								<stop  offset="0" style="stop-color:#255B51"/>
								<stop  offset="1" style="stop-color:#112B27"/>
							</linearGradient>
							<path class="st19" d="M248.1,246.9c0,0,10.2-12.7,69.5-24.9c14.7-3,30.5-0.9,42.7,5.9c14.8,8.2,24.1,19.6,39.3,19
								c23.6-1,55.9-16.3,82.8-1.5c26.9,14.8,45.1,16.8,66.7-3.1s68,14.8,68,14.8l-6.3,31.6L240,290.8L248.1,246.9z"/>
							<g>
								
									<image style="overflow:visible;opacity:0.2;enable-background:new    ;" width="167" height="76" xlink:href="BBEC0FDA.png"  transform="matrix(1 0 0 1 234 229.7059)">
								</image>
								<g>
									
										<linearGradient id="SVGID_16_" gradientUnits="userSpaceOnUse" x1="359.5595" y1="60.0498" x2="248.7425" y2="132.3585" gradientTransform="matrix(1 0 0 -1 0 377.4118)">
										<stop  offset="0" style="stop-color:#2F5B06"/>
										<stop  offset="1" style="stop-color:#3A7B05"/>
									</linearGradient>
									<path class="st20" d="M276.8,234.7c0,0,77,12.7,112.1,56.4c-82,3.2-149,0-149,0v-56.4H276.8z"/>
								</g>
							</g>
							<g>
								
									<image style="overflow:visible;opacity:0.2;enable-background:new    ;" width="191" height="97" xlink:href="BBEC0FDD.png"  transform="matrix(1 0 0 1 426 243.7059)">
								</image>
								<g>
									
										<linearGradient id="SVGID_17_" gradientUnits="userSpaceOnUse" x1="661.2256" y1="239.5999" x2="494.7216" y2="41.2928" gradientTransform="matrix(1 0 0 -1 0 377.4118)">
										<stop  offset="0" style="stop-color:#3A7B05"/>
										<stop  offset="0.3137" style="stop-color:#387405"/>
										<stop  offset="0.7606" style="stop-color:#316206"/>
										<stop  offset="0.8858" style="stop-color:#2F5B06"/>
									</linearGradient>
									<path class="st21" d="M432,291.6c0,0,31.6-39.9,172.3-42.1c0.8,45.9,0,75.2,0,75.2S473.4,339,432,291.6z"/>
								</g>
							</g>
							<g>
								
									<image style="overflow:visible;opacity:0.2;enable-background:new    ;" width="235" height="85" xlink:href="BBEC0FDE.png"  transform="matrix(1 0 0 1 384 277.7059)">
								</image>
								<g>
									
										<linearGradient id="SVGID_18_" gradientUnits="userSpaceOnUse" x1="498.2782" y1="71.5929" x2="446.9946" y2="-27.569" gradientTransform="matrix(0.996 -8.920000e-02 -8.920000e-02 -0.996 30.6701 368.3375)">
										<stop  offset="0.4667" style="stop-color:#3A7B05"/>
										<stop  offset="0.6535" style="stop-color:#397705"/>
										<stop  offset="0.8468" style="stop-color:#346A06"/>
										<stop  offset="1" style="stop-color:#2F5B06"/>
									</linearGradient>
									<path class="st22" d="M390.2,285.8c0,0,122.3-18.5,216.7,41C562.8,338.5,441,388.5,390.2,285.8z"/>
								</g>
							</g>
							<g>
								
									<linearGradient id="SVGID_19_" gradientUnits="userSpaceOnUse" x1="337.2455" y1="82.124" x2="418.438" y2="82.124" gradientTransform="matrix(0.9998 -2.180000e-02 -2.180000e-02 -0.9998 8.8228 371.7795)">
									<stop  offset="0" style="stop-color:#255B51"/>
									<stop  offset="1" style="stop-color:#112B27"/>
								</linearGradient>
								<path class="st23" d="M419.9,295.7c3.3-0.9,5.8-4,5.7-7.2s-2.8-6.1-6.2-6.8c-3.4-0.6-7.1,1.1-8.6,4
									c1.7-3.8,0.5-8.8-3.2-11.1s-9.5-1.4-11.8,2.2c-3.1-7.5-12.6-12.3-21.1-10.4s-14.9,10-14.1,18c0.9-1.8-0.9-3.8-2.8-4.5
									c-4.5-1.8-10.3,0.1-12.5,4.2s-0.4,9.6,3.9,11.7c2.9,1.5,6.4,1.5,9.7,1.4c9.2-0.1,18.3-0.2,27.5-0.3
									c11.4-0.1,22.9-0.3,34.3-1.7"/>
								<path class="st24" d="M360,278.9c3.1,6.5,8.7,10.3,10.6,11.4l-0.5-0.2c-1.8-0.6-3.5-1-5.3-1.5c-4-6-11.1-9.7-11.1-9.7
									c3.3,5.3,8.1,8.4,10.3,9.5c-1.3-0.3-2.5-0.6-3.8-0.9c-0.3-0.1-0.6-0.1-0.9-0.2c-4.3-5.1-10.7-7.9-10.7-7.9
									c3.6,4.5,8.1,6.9,10,7.8c-0.3,0-0.6-0.1-0.9-0.2v0c0,0,0,0,0,0c-1.3-0.2-2.5-0.4-3.7-0.6c-4-4.8-10-7.4-10-7.4
									c3.6,4.5,8.1,6.7,9.6,7.4c-1.1-0.1-2.1-0.3-3.2-0.4c-0.6-0.1-1.1-0.1-1.7-0.1c-3.5-2.9-7.6-4-7.6-4c3.1,2.6,6.1,3.6,7.2,3.9
									c-2-0.1-3.9-0.2-5.8-0.2c-1.6-0.3-5.2-0.8-9,0.3c0,0,5.2,1.3,9.8,0c1.2,0,2.4,0.1,3.7,0.1c-0.9,0.1-3.6,0.8-4.9,3.4
									c0,0,3.7-0.6,5.1-3.4c1.1,0.1,2.1,0.2,3.2,0.3c0.6,0.1,1.3,0.1,2,0.2c-1.1,0.2-4.6,1-6.3,4.4c0,0,4.8-0.8,6.7-4.4
									c1.3,0.2,2.7,0.4,4,0.6c-1.8,0.4-5.5,1.6-7.4,5.4c0,0,5.8-1,8.2-5.2c0.9,0.2,1.8,0.3,2.6,0.5c1,0.2,2.1,0.5,3.1,0.7
									c-1.5,0.1-7.2,0.8-10.6,5.4c0,0,7.4-0.6,11-5.3c2.1,0.5,4.3,1.1,6.4,1.8l0.1,0c-2.1,0-8.2,0.4-12.7,4.7c0,0,8.3,0,13.3-4.5
									l0.5,0.2c0.2,0.1,0.4,0.1,0.6,0.2l0.6,0.2l2.4,0.9c0.8,0.3,1.6,0.6,2.4,0.9l2.4,0.9l0.2-0.4l-2.4-0.9
									c-0.8-0.3-1.6-0.6-2.4-0.9l-2.4-0.9l-0.6-0.2c-0.2-0.1-0.4-0.1-0.6-0.2l-0.2,0C367.7,283.5,360,278.9,360,278.9z"/>
								<g class="st0">
									<g class="st25">
										<path class="st26" d="M366.3,237.8c1.3,0,3.4,1.2,4.9,3.7s1.6,5,0.9,6c-1.2-0.1-3.2-1.6-4.5-3.9
											C366.2,241.3,365.9,239,366.3,237.8z"/>
									</g>
									<g class="st25">
										<path class="st26" d="M378.7,264c-1.5-5.8-3.7-11.4-6.4-16.8l-0.6,0.3c2.7,5.3,4.8,10.9,6.3,16.7L378.7,264z"/>
										<g>
											<path class="st26" d="M379.3,244.5c-1.2,0.3-2.8,2-3.7,4.7c-0.4,1.3-0.6,2.6-0.6,3.6c0,1.1,0.2,1.9,0.6,2.5
												c1.2-0.1,3-1.7,4-4.4C380.5,248.3,380.1,245.6,379.3,244.5z"/>
											<path class="st26" d="M365.3,251.4c1-0.8,3.3-1.2,5.8-0.2c1.3,0.5,2.3,1.2,3.1,1.9c0.7,0.8,1.2,1.5,1.3,2.2
												c-1,0.7-3.4,0.7-5.9-0.2C367.1,254.2,365.6,252.6,365.3,251.4z"/>
										</g>
										<g>
											<path class="st26" d="M368.5,258.8c1.1-0.7,3.4-0.8,5.8,0.4c2.4,1.2,3.9,3.2,3.9,4.5l0,0c-1.1,0.6-3.5,0.4-5.8-0.9
												C370,261.6,368.6,259.9,368.5,258.8z"/>
											<path class="st26" d="M383.1,253.3c-1.3,0.1-3,1.7-4.1,4.3c-1.1,2.5-1.3,4.9-0.6,6.1l0,0c1.2,0,3.2-1.4,4.5-3.9
												C384,257.2,383.8,254.5,383.1,253.3z"/>
										</g>
									</g>
									<g class="st25">
										<path class="st26" d="M381.3,281.4c-0.3-6-1.2-12-2.7-17.8l-0.7,0.2c1.5,5.8,2.4,11.7,2.7,17.6L381.3,281.4z"/>
										<g>
											<path class="st26" d="M386,262.4c-1.3,0-3.2,1.4-4.6,3.8c-1.4,2.4-1.8,4.8-1.3,6c1.2,0.1,3.4-1,4.8-3.4
												c0.8-1.2,1.1-2.5,1.3-3.6C386.4,264,386.3,263.1,386,262.4z"/>
											<path class="st26" d="M370.8,266.3c1.1-0.5,3.5-0.5,5.8,1c2.3,1.4,3.5,3.6,3.4,4.9c-1.1,0.5-3.5,0-5.7-1.5
												c-1.1-0.7-2-1.6-2.5-2.4C371.2,267.7,370.9,266.9,370.8,266.3z"/>
										</g>
										<g>
											<path class="st26" d="M372.4,274.1c1.2-0.4,3.5-0.1,5.6,1.6c1,0.8,1.9,1.8,2.3,2.8s0.6,1.8,0.5,2.5l0,0
												c-1.2,0.4-3.5-0.4-5.5-2C373.3,277.3,372.4,275.3,372.4,274.1z"/>
											<path class="st26" d="M387.9,271.9c-1.3-0.1-3.3,1.1-5,3.3c-0.9,1.1-1.4,2.3-1.7,3.3c-0.3,1-0.4,1.9-0.2,2.5l0,0
												c1.2,0.3,3.4-0.6,5.2-2.9C387.9,275.8,388.3,273.2,387.9,271.9z"/>
										</g>
									</g>
									<g class="st25">
										<path class="st26" d="M380.2,299c1-5.9,1.3-11.9,1-17.9l-0.7,0c0.3,6-0.1,11.9-1,17.8L380.2,299z"/>
										<g>
											<path class="st26" d="M388.8,281.4c-1.2-0.3-3.4,0.7-5.3,2.8c-1.9,2-2.7,4.3-2.5,5.6c1.2,0.4,3.5-0.3,5.5-2.3
												c1-1,1.6-2.2,2-3.3C388.8,283,388.9,282.1,388.8,281.4z"/>
											<path class="st26" d="M373.2,282c1.2-0.3,3.5,0.3,5.4,2.2c1.9,1.9,2.7,4.3,2.3,5.5c-1.2,0.2-3.4-0.7-5.2-2.6
												c-0.9-1-1.6-1.9-2-2.8C373.2,283.4,373,282.6,373.2,282z"/>
										</g>
										<g>
											<path class="st26" d="M373.1,290c1.2-0.2,3.5,0.7,5.1,2.7c1.7,2.1,2.2,4.5,1.7,5.7l0,0c-1.2,0.1-3.3-1.1-5-3.1
												c-0.8-1-1.4-2.1-1.7-3C373,291.3,372.9,290.5,373.1,290z"/>
											<path class="st26" d="M388.6,291c-1.2-0.4-3.4,0.4-5.5,2.2c-2,1.9-3.2,4-3.1,5.3l0,0c1.1,0.5,3.5,0.1,5.6-1.8
												c1.1-0.9,1.9-2,2.4-3C388.5,292.6,388.7,291.7,388.6,291z"/>
										</g>
									</g>
								</g>
								<path class="st24" d="M401.7,262.2c3.4,4.4,4,9.6,4.1,11.3l0.1-0.4c0.2-1.4,0.5-2.8,0.8-4.1c-2.8-4.8-2.8-11-2.8-11
									c2.5,4.1,2.9,8.5,3,10.3c0.2-1,0.5-1.9,0.7-2.9c0.1-0.2,0.1-0.5,0.2-0.7c-2-4.7-1.7-10.1-1.7-10.1c1.9,4.1,1.9,8,1.9,9.6
									c0.1-0.2,0.1-0.4,0.2-0.6c0,0,0,0,0,0c0,0,0,0,0,0c0.3-0.9,0.6-1.9,0.9-2.8c-1.9-4.4-1.6-9.4-1.6-9.4c1.8,4,1.8,7.9,1.7,9.1
									c0.3-0.8,0.6-1.6,0.9-2.3c0.2-0.4,0.3-0.8,0.5-1.2c-0.7-3.4-0.1-6.6-0.1-6.6c0.7,3,0.4,5.4,0.2,6.3c0.6-1.4,1.2-2.7,1.9-4
									c0.3-1.2,1.2-3.8,3.3-6.1c0,0-0.9,4-3.4,6.7c-0.4,0.8-0.8,1.7-1.2,2.6c0.4-0.5,1.8-2.2,4-2.2c0,0-1.7,2.3-4.1,2.4
									c-0.3,0.7-0.6,1.5-0.9,2.3c-0.2,0.5-0.4,0.9-0.5,1.4c0.5-0.7,2.3-2.8,5.2-2.8c0,0-2.2,3-5.3,3.1c-0.3,1-0.7,2-1,3
									c0.9-1.1,3-3.2,6.3-3.2c0,0-2.7,3.6-6.4,3.8c-0.2,0.7-0.4,1.3-0.5,2c-0.2,0.8-0.4,1.6-0.6,2.4c0.6-1,3.1-4.7,7.4-5.4
									c0,0-3,4.8-7.5,5.7c-0.4,1.6-0.7,3.3-1,5l0,0.1c0.7-1.4,3.2-5.5,7.7-7.1c0,0-2.9,5.7-7.7,7.5l-0.1,0.4
									c0,0.2-0.1,0.3-0.1,0.5l-0.1,0.5l-0.3,2c-0.1,0.6-0.1,1.3-0.2,2l-0.2,2l-0.3,0l0.2-2c0.1-0.7,0.1-1.3,0.2-2l0.3-2l0.1-0.5
									c0-0.2,0.1-0.3,0.1-0.5l0-0.1C402.2,269.1,401.7,262.2,401.7,262.2z"/>
								<g>
									
										<image style="overflow:visible;opacity:0.35;enable-background:new    ;" width="47" height="52" xlink:href="BBEC0FDC.png"  transform="matrix(1 0 0 1 348 257.7059)">
									</image>
									<g>
										<g>
											
												<linearGradient id="SVGID_20_" gradientUnits="userSpaceOnUse" x1="374.7649" y1="218.3733" x2="403.8997" y2="218.3733" gradientTransform="matrix(0.9893 0.1458 0.1458 -0.9893 -48.4424 436.7402)">
												<stop  offset="0" style="stop-color:#C7DC5E"/>
												<stop  offset="1" style="stop-color:#3A7B05"/>
											</linearGradient>
											<path class="st27" d="M355.7,264.8c0,0,2.9-0.4,4.9-0.3c0.9,0,1.6,0.9,1.5,1.9l-0.3,3.5c0,0.2,0.1,0.4,0.3,0.5l0,0
												c0.2,0.1,0.5-0.1,0.5-0.4l0.7-5c0,0,2.5,1.2,4.3,2.2c0.7,0.4,1.1,1.2,1.1,2.1l-0.4,6.8c0,0.2,0.1,0.4,0.3,0.4l0,0
												c0.2,0.1,0.4-0.1,0.5-0.4l0.7-7.6c0,0,2.1,1.6,3.4,2.6c0.6,0.5,0.9,1.3,0.7,2l-2,7.3c0,0.2,0,0.4,0.1,0.5l0,0
												c0.2,0.2,0.5,0.1,0.6-0.2l2.6-8c0,0,1.3,0.2,4.2,3.7c0.8,1,0.9,2.5,0.1,3.5l-2.9,3.7c-0.1,0.2-0.1,0.5,0,0.7l0,0
												c0.2,0.2,0.5,0.2,0.7,0l4.1-5.3c0,0,1.9,2.8,1.2,5.2s-0.6,5.3-2.9,5.7s-4.7,0.2-4.7,0.2L356.6,268L355.7,264.8z"/>
											
												<linearGradient id="SVGID_21_" gradientUnits="userSpaceOnUse" x1="374.5102" y1="213.9517" x2="397.3965" y2="213.9517" gradientTransform="matrix(0.9893 0.1458 0.1458 -0.9893 -48.4424 436.7402)">
												<stop  offset="0" style="stop-color:#C7DC5E"/>
												<stop  offset="1" style="stop-color:#3A7B05"/>
											</linearGradient>
											<path class="st28" d="M374.9,290.3l-19.2-25.4c0,0-0.8,3-1,5.4c-0.1,1.1,0.5,2.3,1.5,2.7c1.3,0.6,3.1,1.3,4,1.6
												c0.2,0.1,0.4,0.3,0.4,0.5l0,0c0,0.4-0.3,0.6-0.6,0.5c-1.5-0.3-5.1-1.2-5.4-1.7c0,0,0.8,3.4,1.4,5.4
												c0.2,0.8,0.9,1.5,1.7,1.6c1.7,0.4,5,1,6.7,0.9c0.2,0,0.4,0.1,0.4,0.3l0,0c0.1,0.3-0.1,0.5-0.4,0.5
												c-1.4,0-5.6-0.1-7.1-0.6c0,0,1,2.7,1.7,4.4c0.3,0.7,0.9,1.1,1.5,1.2c1.5,0.2,4.2,0.2,6.9-1.3c0.2-0.1,0.5,0,0.7,0.2l0,0
												c0.2,0.3,0.1,0.7-0.2,0.9c-1.5,0.8-5.7,2.6-8.1,1.3c0,0,4.1,8.5,8.3,8.2S373.7,297.9,374.9,290.3z"/>
										</g>
									</g>
								</g>
								<g>
									
										<image style="overflow:visible;opacity:0.35;enable-background:new    ;" width="52" height="64" xlink:href="BBEC0FDB.png"  transform="matrix(1 0 0 1 367 250.7059)">
									</image>
									<g>
										<g>
											
												<linearGradient id="SVGID_22_" gradientUnits="userSpaceOnUse" x1="370.8888" y1="103.2253" x2="388.9372" y2="85.394" gradientTransform="matrix(1.0007 -2.960000e-02 -1.530000e-02 -1.0564 6.8372 389.1488)">
												<stop  offset="0" style="stop-color:#3A7B05"/>
												<stop  offset="0.3137" style="stop-color:#387405"/>
												<stop  offset="0.7606" style="stop-color:#316206"/>
												<stop  offset="0.8858" style="stop-color:#2F5B06"/>
											</linearGradient>
											<path class="st29" d="M393.1,257.3C393.1,257.3,393.1,257.3,393.1,257.3c-0.3,0.2-0.5,0.4-0.8,0.6c-0.7,0.4-1.6,1-3,1.6
												c-3.1,1.5-1,10.3-0.5,12.1c0,0.2,0,0.4-0.1,0.5c-0.1,0.1-0.4,0.1-0.5-0.1c-2.2-3.8-0.9-12.2-0.9-12.2
												c-0.4,0-2,1.1-3.3,2.1c-1.3,0.9-2,2.8-1.8,4.6c0.6,4.6,3.3,9.9,3.9,11.1c0.1,0.1,0.2,0.4,0.1,0.5
												c-0.1,0.2-0.2,0.3-0.3,0.3c-0.1,0-0.1-0.1-0.2-0.1c-4.1-4.2-4.5-14.5-4.5-14.5c-0.8,0.5-2.5,3.4-3.5,5.1
												c-0.5,0.9-0.6,1.9-0.3,2.9c1.2,3.5,5,8.7,6.1,10.1c0.2,0.2,0.4,0.3,0.2,0.6c-0.1,0.2-0.3,0.3-0.5,0.3c-0.1,0-0.1,0-0.2,0
												c-4.9-3.6-6.7-11.6-6.7-11.6c-0.7,0.9-1.7,5.1-2.2,7.4c-0.2,1.1-0.1,2.2,0.3,3.1c1.8,3.8,5.8,5.7,7.3,6.3
												c0.3,0.1,0.4,0.5,0.2,0.8c-0.1,0.2-0.3,0.4-0.5,0.3c-5-0.4-7.8-6.9-7.8-6.9s-2.3,11.7,4,16.5c6.3,4.8,10.9-2.1,11.3-4.3
												c0-0.1,0-0.2,0-0.3c0,0,0-0.1,0-0.1L393.1,257.3C393.2,257.3,393.1,257.3,393.1,257.3z M386.4,274.9c1.2-2.2,1.8,2,1.8,2
												C388.1,277.6,385.9,275.7,386.4,274.9z M383.6,279c0.2-0.5,1-0.4,1.3-0.2s1.1,1,0.9,1.5s-1.4,0.3-1.6,0.2
												S383.4,279.5,383.6,279z M383.2,286.1c0.2-0.5,1.6-0.2,2.1,0c0.5,0.3,1.6,1.1,1.4,1.6c-0.2,0.5-1.5,0.4-2.1,0.1
												C384.1,287.7,383.1,286.6,383.2,286.1z M384.4,295.1c-0.6,0.2-1.5-0.3-1.6-1.1c-0.1-0.9,0.7-1.6,1.3-1.8s2-0.1,2.1,0.8
												C386.3,293.8,385,294.9,384.4,295.1z M388.6,283.7c-0.3,0.2-0.9-0.3-1-0.6c-0.2-0.3-0.3-1.3-0.1-1.5
												c0.3-0.2,0.8,0.4,1,0.7C388.7,282.7,388.9,283.5,388.6,283.7z M390.2,274.2c-0.1,0.3-0.3,0.9-0.6,0.8
												c-0.2-0.1-0.3-0.8-0.2-1.1s0.4-0.9,0.6-0.8C390.4,273.2,390.3,274,390.2,274.2z M390.9,269.9c-0.4,0.5-1.4-3.2-0.7-3.3
												C391.5,266.5,390.9,269.9,390.9,269.9z"/>
											
												<linearGradient id="SVGID_23_" gradientUnits="userSpaceOnUse" x1="510.3033" y1="378.5477" x2="545.6108" y2="359.2055" gradientTransform="matrix(0.7947 0.4419 0.3915 -1.0497 -169.2674 433.2867)">
												<stop  offset="0" style="stop-color:#3A7B05"/>
												<stop  offset="0.3137" style="stop-color:#387405"/>
												<stop  offset="0.7606" style="stop-color:#316206"/>
												<stop  offset="0.8858" style="stop-color:#2F5B06"/>
											</linearGradient>
											<path class="st30" d="M399.1,293.5c-0.3,0-0.5-0.3-0.5-0.6l0,0c0-0.5,0.2-0.9,0.6-0.9c8.7-1,7.7-9.5,7.7-9.5
												c-2.2,3.1-8.3,4.6-9.8,5c-0.2,0-0.4-0.1-0.4-0.4c0-0.3,0.1-0.5,0.3-0.5c4.8-0.9,9.8-6.2,9.8-6.2c0.5-4-1.8-9.7-1.8-9.7
												c-3.4,7.6-8.1,9.6-9.2,10c-0.1,0-0.3,0-0.4-0.2c-0.1-0.2,0-0.6,0.2-0.6c5.3-1.7,8.5-11,8.5-11c-0.2-2.1-3.8-5.4-3.8-5.4
												c-0.7,6.1-3.8,9.8-4.8,10.9c-0.1,0.2-0.4,0.1-0.5-0.1c-0.1-0.2,0-0.4,0.1-0.6c3.4-3.4,4.1-11,4.1-11
												c-0.4-1.2-1.4-1.3-2.7-2.2c-1.2-0.9-3-2.7-3.4-3.1c0,0,0,0,0,0c0,0,0,0,0,0l-4.2,36.9c0,0,0,0,0,0c0,0.4,0.2,9.3,8.9,7.3
												c6.9-1.6,8.3-11.8,8.3-11.8C403.3,293.5,400.2,293.6,399.1,293.5z M395.9,276.3c0.2-0.1,0.8-0.2,0.9,0s-0.3,0.7-0.5,0.8
												c-0.2,0.1-0.8,0.3-0.9,0C395.2,276.9,395.6,276.4,395.9,276.3z M394.3,270.2c0.9,0.4-1.4,2.2-1.7,1.7
												C392.5,272,392.8,269.6,394.3,270.2z M391.5,279.4c0.4-0.9,1.1-1.7,1.5-0.3c0.1,0.5-0.4,1-0.9,1.2
												C391.6,280.6,391.2,280,391.5,279.4z M391.2,285.4c-0.1-0.4,0.6-0.8,0.9-0.9c0.3-0.1,0.7,0,0.7,0.4
												c0.1,0.4-0.2,0.8-0.5,0.9C392,285.9,391.3,285.8,391.2,285.4z M394.1,294.6c-0.3,0.7-1.2,0.9-1.7,0.6
												c-0.5-0.3-1.4-1.5-1.2-2.3s1.5-0.5,2-0.2C393.8,293.1,394.4,293.9,394.1,294.6z M394,289.9c-0.4,0.3-1.5,0.4-1.7-0.2
												c-0.2-0.6,0.6-1.5,1-1.8c0.4-0.3,1.5-0.6,1.7,0S394.4,289.6,394,289.9z M395.7,283.4c-0.2,0.1-0.8,0-0.9-0.3
												s0.5-0.6,0.7-0.7s0.6,0,0.6,0.3S395.9,283.4,395.7,283.4z"/>
										</g>
									</g>
								</g>
							</g>
							<g>
								
									<image style="overflow:visible;opacity:0.2;enable-background:new    ;" width="429" height="116" xlink:href="BBEC0FD5.png"  transform="matrix(1 0 0 1 200 275.7059)">
								</image>
								<g>
									
										<linearGradient id="SVGID_24_" gradientUnits="userSpaceOnUse" x1="261.7073" y1="134.3981" x2="502.0565" y2="-24.7149" gradientTransform="matrix(1 0 0 -1 0 377.4118)">
										<stop  offset="0" style="stop-color:#EAE46C"/>
										<stop  offset="3.010000e-02" style="stop-color:#DCDE63"/>
										<stop  offset="0.1088" style="stop-color:#BDD24E"/>
										<stop  offset="0.1852" style="stop-color:#A6C83F"/>
										<stop  offset="0.2577" style="stop-color:#99C336"/>
										<stop  offset="0.3222" style="stop-color:#94C133"/>
									</linearGradient>
									<path class="st31" d="M233.2,291.2c0,0,126.4-28.3,207.7,11.3S617,323.7,617,323.7v55H233.2
										C233.2,378.7,173,333.9,233.2,291.2z"/>
								</g>
							</g>
							
								<linearGradient id="SVGID_25_" gradientUnits="userSpaceOnUse" x1="364.765" y1="305.3259" x2="364.765" y2="267.7059" gradientTransform="matrix(1 0 0 -1 0 377.4118)">
								<stop  offset="0" style="stop-color:#FFFFFF"/>
								<stop  offset="1" style="stop-color:#FFFFFF;stop-opacity:0.1"/>
							</linearGradient>
							<path class="st32" d="M427.1,109.7c-3.2-9.7-14.3-16.9-27.6-16.9c-3.4,0-6.6,0.5-9.6,1.3c-3.5-12.7-15.2-22-29-22
								c-12.2,0-22.7,7.3-27.4,17.7c-2-0.5-4-0.8-6.1-0.8c-12.4,0-22.8,8.9-25,20.7H427.1z"/>
							
								<linearGradient id="SVGID_26_" gradientUnits="userSpaceOnUse" x1="230.26" y1="352.3359" x2="230.26" y2="330.7059" gradientTransform="matrix(1 0 0 -1 0 377.4118)">
								<stop  offset="0" style="stop-color:#FFFFFF"/>
								<stop  offset="1" style="stop-color:#FFFFFF;stop-opacity:0.1"/>
							</linearGradient>
							<path class="st33" d="M266.1,46.7c-1.8-5.6-8.2-9.7-15.9-9.7c-1.9,0-3.8,0.3-5.5,0.8c-2-7.3-8.7-12.7-16.7-12.7
								c-7,0-13,4.2-15.8,10.2c-1.1-0.3-2.3-0.4-3.5-0.4c-7.1,0-13.1,5.1-14.3,11.9L266.1,46.7L266.1,46.7z"/>
							
								<linearGradient id="SVGID_27_" gradientUnits="userSpaceOnUse" x1="291.9602" y1="-2.8339" x2="826.0632" y2="531.2691" gradientTransform="matrix(1 0 0 -1 0 377.4118)">
								<stop  offset="0" style="stop-color:#FFFFFF;stop-opacity:0"/>
								<stop  offset="0.8481" style="stop-color:#FFFFFF;stop-opacity:0.8125"/>
								<stop  offset="1" style="stop-color:#FFFFFF"/>
							</linearGradient>
							<polygon class="st34" points="556,48.1 563,101.7 337,421.7 166,419.7 							"/>
							<g>
								
									<image style="overflow:visible;opacity:0.35;enable-background:new    ;" width="141" height="134" xlink:href="BBEC0FD7.png"  transform="matrix(1 0 0 1 409 143.7059)">
								</image>
								<g>
									
										<linearGradient id="SVGID_28_" gradientUnits="userSpaceOnUse" x1="412.6966" y1="106.6831" x2="501.0985" y2="191.0926" gradientTransform="matrix(1 0 0 -1 0 377.4118)">
										<stop  offset="0" style="stop-color:#255B51"/>
										<stop  offset="1" style="stop-color:#112B27"/>
									</linearGradient>
									<path class="st35" d="M436.2,177c0,0-41.4,13.1-7.6,41.4c-16.3,38.1,25,49,42.5,25c1.1,30.5,46.8,26.1,54.4,2.2
										s-2.2-29.4-2.2-29.4s26.1-22.9,7.6-33.8c5.4-19.6-35.9-52.3-56.6-17.4C460.2,148.7,438.4,141.1,436.2,177z"/>
								</g>
							</g>
							<g>
								
									<image style="overflow:visible;opacity:0.35;enable-background:new    ;" width="178" height="174" xlink:href="BBEC0FD4.png"  transform="matrix(1 0 0 1 497 61.7059)">
								</image>
								<g>
									
										<linearGradient id="SVGID_29_" gradientUnits="userSpaceOnUse" x1="536.3225" y1="91.8045" x2="603.0632" y2="279.8458" gradientTransform="matrix(1 0 0 -1 0 377.4118)">
										<stop  offset="0" style="stop-color:#255B51"/>
										<stop  offset="1" style="stop-color:#112B27"/>
									</linearGradient>
									<path class="st36" d="M530.5,204.2c4,1,30,36,56,8c19,20,40,8,47-19c27,7,43-52,14-62c23-25-17-67-35-52c-43-29-88,9-82,27
										c-23-3-27,33-10,47C494.5,156.2,497.5,196.2,530.5,204.2z"/>
								</g>
							</g>
							<path class="st37" d="M499,183.7l20,28l6-95h15v53l28.2-30c1.1-1.1,3-0.7,3.4,0.7c0.3,0.9,0.7,2,1.3,3.3c-2,1-33,46-33,46
								l13,206h-45l10-172l-27-40H499z"/>
							<g>
								
									<image style="overflow:visible;opacity:0.35;enable-background:new    ;" width="100" height="297" xlink:href="291E4A49.png"  transform="matrix(1 0 0 1 485 110.7059)">
								</image>
								<g>
									<path class="st37" d="M499,183.7l20,28l6-95h15v53l28.2-30c1.1-1.1,3-0.7,3.4,0.7c0.3,0.9,0.7,2,1.3,3.3c-2,1-33,46-33,46
										l13,206h-45l10-172l-27-40H499z"/>
								</g>
							</g>
							<path class="st38" d="M568.2,139.7l-28.2,30v-53h-8v279h21l-13-206c0,0,31-45,33-46c-0.6-1.3-1-2.4-1.3-3.3
								C571.2,138.9,569.3,138.5,568.2,139.7z"/>
							<path class="st39" d="M540,189.7c0,0,31-45,33-46c-0.6-1.3-1-2.4-1.3-3.3c-0.5-1.5-2.4-1.9-3.4-0.7l-28.2,30v-53h-15l-6,95
								l-20-28h-8l24.8,36.8l24.4-26.5L540,189.7z"/>
							
								<linearGradient id="SVGID_30_" gradientUnits="userSpaceOnUse" x1="247.0701" y1="146.7567" x2="632.5161" y2="532.2028" gradientTransform="matrix(0.9959 9.070000e-02 9.070000e-02 -0.9959 -42.4443 405.7379)">
								<stop  offset="0" style="stop-color:#FFFFFF;stop-opacity:0"/>
								<stop  offset="1" style="stop-color:#FFFFFF"/>
							</linearGradient>
							<polygon class="st40" points="458,71.7 460,114.7 132.2,397.4 35.3,388.5 							"/>
							<g>
								
									<image style="overflow:visible;opacity:0.35;enable-background:new    ;" width="131" height="125" xlink:href="291E4A4F.png"  transform="matrix(1 0 0 1 544 60.7059)">
								</image>
								<g>
									
										<linearGradient id="SVGID_31_" gradientUnits="userSpaceOnUse" x1="582.0642" y1="206.1577" x2="630.6212" y2="307.4581" gradientTransform="matrix(1 0 0 -1 0 377.4118)">
										<stop  offset="0" style="stop-color:#255B51"/>
										<stop  offset="1" style="stop-color:#112B27"/>
									</linearGradient>
									<path class="st41" d="M569.5,92.2c0,0-38,12-7,38c-15,35,23,45,39,23c1,28,43,24,50,2s-2-27-2-27s24-21,7-31
										c5-18-33-48-52-16C591.5,66.2,571.5,59.2,569.5,92.2z"/>
								</g>
							</g>
							<g>
								
									<image style="overflow:visible;opacity:0.35;enable-background:new    ;" width="222" height="193" xlink:href="291E4A48.png"  transform="matrix(1 0 0 1 431 -40.2941)">
								</image>
								<g>
									
										<linearGradient id="SVGID_32_" gradientUnits="userSpaceOnUse" x1="474.4302" y1="392.3107" x2="593.5247" y2="267.2033" gradientTransform="matrix(1 0 0 -1 0 377.4118)">
										<stop  offset="0" style="stop-color:#34A180"/>
										<stop  offset="0.2378" style="stop-color:#329E7D"/>
										<stop  offset="0.4353" style="stop-color:#2D9375"/>
										<stop  offset="0.6184" style="stop-color:#238266"/>
										<stop  offset="0.7927" style="stop-color:#166A52"/>
										<stop  offset="0.9594" style="stop-color:#054B37"/>
										<stop  offset="0.9997" style="stop-color:#004230"/>
									</linearGradient>
									<path class="st42" d="M447.5,11.2c-0.5,1.9-25,20,3,60c-23,28,7,53,28,44c3,25,42,35,57,11c10,15,40,11,57-19
										c34,3,43-26,46-47s7-79-41-72C587.5-42.8,463.5-46.8,447.5,11.2z"/>
								</g>
							</g>
							<g>
								
									<image style="overflow:visible;opacity:0.35;enable-background:new    ;" width="171" height="174" xlink:href="291E4A4B.png"  transform="matrix(1 0 0 1 385 35.7059)">
								</image>
								<g>
									
										<linearGradient id="SVGID_33_" gradientUnits="userSpaceOnUse" x1="344.4873" y1="347.0594" x2="517.037" y2="224.3456" gradientTransform="matrix(1 0 0 -1 0 377.4118)">
										<stop  offset="0" style="stop-color:#34A180"/>
										<stop  offset="0.1758" style="stop-color:#2F9878"/>
										<stop  offset="0.4636" style="stop-color:#227F64"/>
										<stop  offset="0.8256" style="stop-color:#0C5842"/>
										<stop  offset="0.9997" style="stop-color:#004230"/>
									</linearGradient>
									<path class="st43" d="M452.9,56.2c-3.1,4.1-69.2-1-49,61c-27.7,27-5.3,47,14.9,48c8.5,27,55.8,46,74.8,18.5
										c25.2,7,45.6-17.5,36-61.5c32-17,4.3-66-24.5-53C504.1,32.2,466.8,38.2,452.9,56.2z"/>
								</g>
							</g>
							
								<linearGradient id="SVGID_34_" gradientUnits="userSpaceOnUse" x1="491.9123" y1="19.7689" x2="524.8085" y2="19.7689" gradientTransform="matrix(0.9997 -2.310000e-02 -2.310000e-02 -0.9997 8.1409 375.1609)">
								<stop  offset="0" style="stop-color:#41837E"/>
								<stop  offset="0.2069" style="stop-color:#2F5D70"/>
								<stop  offset="0.4272" style="stop-color:#203C64"/>
								<stop  offset="0.6383" style="stop-color:#15245B"/>
								<stop  offset="0.8342" style="stop-color:#0E1656"/>
								<stop  offset="1" style="stop-color:#0C1154"/>
							</linearGradient>
							<path class="st44" d="M501.4,373.8C501.5,373.8,501.5,373.8,501.4,373.8c0.2,0,0.2-0.1,0.2-0.2c-0.3-5.6,1.2-12.5,4.5-20.4
								l0.1-0.1l0.1,0c0.8-0.1,1.6-0.2,2.4-0.3c4-0.5,8.2-1,11.9-1.8c0.1,0,0.2-0.1,0.1-0.2c0-0.1,0-0.1-0.1-0.1c0,0,0,0-0.1,0
								c-3.8,0.9-7.9,1.4-11.9,1.8c-0.7,0.1-1.3,0.2-2,0.2l-0.4,0l0.2-0.4c2.3-5.3,5.5-11,9.3-17.1l0.1-0.1l0.1,0
								c1.8-0.5,3.9-1,6.2-1.6c0.9-0.2,1.8-0.5,2.8-0.7c0,0,0.1,0,0.1-0.1c0,0,0-0.1,0-0.1c0-0.1,0-0.1-0.1-0.1c0,0,0,0-0.1,0
								c-0.9,0.2-1.9,0.5-2.8,0.7c-1.8,0.4-3.7,0.9-5.3,1.3l-0.6,0.2l0.4-0.6c7.5-11.5,14.9-20.2,15-20.3c0,0,0-0.1,0-0.1
								c0,0,0-0.1,0-0.1c0,0,0,0-0.1,0c-0.1,0-0.1,0-0.2,0c-0.1,0.1-8,9.3-15.6,21.2c-0.8,1.3-1.7,2.6-2.5,4l-0.3,0.5l-0.1-0.6
								c-0.6-3-2.2-10.5-2.3-11.2c0-0.1-0.1-0.1-0.1-0.1c0,0-0.1,0-0.1,0c0,0-0.1,0-0.1,0.1c0,0,0,0.1,0,0.1
								c0.3,1.1,2.3,10.5,2.5,12.1l0,0.1l-0.1,0.1c-3,5.1-5.5,10-7.3,14.5l-0.2,0.5l-0.2-0.4c-2.5-4.4-4-9.2-5.3-13.2
								c0,0-0.1-0.1-0.1-0.1c0,0-0.1,0-0.1,0c-0.1,0-0.1,0.1-0.1,0.2c1.3,4.3,3,9.2,5.5,13.8l0.1,0.1l0,0.2c-2.8,7-4,13.2-3.7,18.4
								C501.3,373.7,501.4,373.8,501.4,373.8z"/>
							<g>
								
									<linearGradient id="SVGID_35_" gradientUnits="userSpaceOnUse" x1="525.359" y1="16.4249" x2="640.003" y2="16.4249" gradientTransform="matrix(1 0 0 -1 0 377.4118)">
									<stop  offset="0" style="stop-color:#255B51"/>
									<stop  offset="1" style="stop-color:#112B27"/>
								</linearGradient>
								<path class="st45" d="M533.6,384c-4.7-1.2-8.3-5.9-8.2-10.8s3.8-9.5,8.5-10.5c4.8-1.1,10.1,1.4,12.3,5.8
									c-2.6-5.8-1-13.4,4.2-17.1s13.4-2.5,16.7,3c4.1-11.6,17.5-19.1,29.5-16.6c12.1,2.5,21.3,14.8,20.4,27
									c-1.3-2.7,1.1-5.8,3.8-7c6.3-2.9,14.6-0.1,17.8,6s0.8,14.6-5.2,18c-4,2.4-9,2.5-13.7,2.5c-13,0.1-25.9,0.3-38.8,0.4
									c-16.2,0.2-32.3,0.3-48.4-1.4"/>
								<path class="st26" d="M549.4,334.6c16.6,14.9,21.5,33.3,22.7,39.4l0.2-1.5c0.4-5.1,1.1-10.2,1.9-15.2
									c-14.1-16.7-16.8-38.9-16.8-38.9c12.6,14.2,16.2,29.8,17.2,36.5c0.6-3.5,1.3-7.1,2-10.6c0.2-0.8,0.4-1.6,0.5-2.5
									c-10.9-16.4-11.6-36-11.6-36c9.8,14.2,11.7,28.2,12,34c0.2-0.8,0.4-1.6,0.6-2.3c0,0,0,0,0,0c0,0,0,0,0-0.1
									c0.8-3.5,1.8-6.9,2.8-10.2c-10.2-15.2-10.9-33.5-10.9-33.5c9.7,14,11,27.9,11.2,32.4c0.9-2.9,1.8-5.8,2.8-8.7
									c0.5-1.5,1.1-3,1.6-4.5c-4.6-12-3-23.8-3-23.8c4.2,10.6,3.8,19.4,3.3,22.7c2-5.2,4.1-10.3,6.5-15.1
									c1-4.5,3.9-14.1,12.1-22.8c0,0-2.5,14.6-12.3,25.2c-1.5,3.1-2.8,6.3-4.1,9.6c1.5-2.1,6.9-8.4,16.7-9c0,0-6.6,8.8-17,9.6
									c-1.1,2.8-2.1,5.6-3.1,8.5c-0.6,1.7-1.2,3.5-1.7,5.3c2-2.7,9-10.9,21.8-11.7c0,0-8.6,11.5-22.1,12.5
									c-1.1,3.6-2.2,7.3-3.1,11c3.4-4.1,11.9-12.4,26.2-13.3c0,0-10.3,13.9-26.7,15.5c-0.6,2.4-1.1,4.9-1.6,7.3
									c-0.6,2.9-1.1,5.8-1.7,8.7c2.3-3.9,11.5-17.7,30.4-21.6c0,0-11.2,18.3-30.5,22.6c-1,6-1.8,12.1-2.3,18.3l0,0.4
									c2.6-5.3,11.7-20.7,30.8-27.8c0,0-10.5,21.3-30.9,29.4l-0.1,1.5c0,0.6-0.1,1.2-0.2,1.8l-0.1,1.8l-0.3,7.1
									c-0.2,2.4-0.1,4.7-0.1,7.1v7.1l-1.4,0.1l0-7.2c0-2.4,0-4.8,0.2-7.2l0.4-7.2l0.1-1.8c0-0.6,0.1-1.2,0.2-1.8l0-0.5
									C554.4,359.3,549.4,334.6,549.4,334.6z"/>
								<path class="st26" d="M468.1,342.3c-4.4,15.2-0.3,28.2,1.2,32.3l-0.7-0.9c-2.2-2.9-4.5-5.7-6.9-8.4
									c2.2-15.4-4.6-29.8-4.6-29.8c-2.2,13.3,1.5,24.1,3.5,28.5c-1.7-1.9-3.5-3.8-5.2-5.6c-0.4-0.4-0.8-0.9-1.3-1.3
									c0.3-14-6.6-26-6.6-26c-0.5,12.2,3.6,21.4,5.6,25c-0.4-0.4-0.8-0.8-1.2-1.2c0,0,0,0,0,0c0,0,0,0-0.1,0
									c-1.8-1.8-3.7-3.5-5.5-5.1c0.4-13-6.1-24.3-6.1-24.3c-0.5,12.1,3.9,21,5.5,23.8c-1.6-1.4-3.3-2.8-5-4.2
									c-0.9-0.7-1.8-1.4-2.7-2.1c-1.8-9-7.2-15.4-7.2-15.4c1.5,8,5.1,13.1,6.6,15c-3.1-2.4-6.4-4.6-9.6-6.6
									c-2.3-2.4-7.7-7.1-15.9-9.1c0,0,7,7.9,17,10.5c2.1,1.3,4.1,2.7,6.1,4.2c-1.7-0.7-7.3-2.4-13.5,0.9c0,0,7.3,2.8,13.9-0.6
									c1.7,1.3,3.4,2.6,5.1,4c1,0.8,2,1.7,3,2.5c-2.3-0.9-9.6-3.1-17.5,1.2c0,0,9.5,3.7,18-0.8c2,1.8,4.1,3.6,6,5.5
									c-3.6-1.2-11.9-3-20.8,1.9c0,0,11.5,4.4,22-0.8c1.3,1.2,2.5,2.5,3.8,3.8c1.5,1.5,2.9,3.1,4.3,4.6
									c-2.8-1.5-13.7-6.3-26.5-1.5c0,0,13.6,6.8,26.9,2c2.9,3.3,5.7,6.6,8.3,10.1l0.2,0.2c-3.6-2.2-14.8-8-29.1-5.1
									c0,0,14.4,8.9,29.8,6l0.7,0.9c0.3,0.3,0.5,0.7,0.8,1l0.7,1l2.9,4.1c1,1.4,1.8,2.8,2.8,4.2l2.7,4.3l0.9-0.5l-2.8-4.3
									c-0.9-1.4-1.8-2.9-2.8-4.3l-2.9-4.2l-0.7-1c-0.3-0.4-0.5-0.7-0.8-1l-0.2-0.3C474.5,359.1,468.1,342.3,468.1,342.3z"/>
								<g>
									
										<linearGradient id="SVGID_36_" gradientUnits="userSpaceOnUse" x1="544.4285" y1="24.5052" x2="589.5599" y2="24.5052" gradientTransform="matrix(1 0 0 -1 0 377.4118)">
										<stop  offset="2.621188e-04" style="stop-color:#0E4F24"/>
										<stop  offset="0.2351" style="stop-color:#20653F"/>
										<stop  offset="0.5378" style="stop-color:#337C5B"/>
										<stop  offset="0.803" style="stop-color:#3F8A6C"/>
										<stop  offset="1" style="stop-color:#438F72"/>
									</linearGradient>
									<path class="st46" d="M589.5,318.5C589.5,318.5,589.5,318.5,589.5,318.5c-0.5,0.2-1,0.4-1.6,0.7c-1.3,0.5-3.2,1.1-5.9,1.7
										c-6,1.4-4.9,16.9-4.6,20.2c0,0.3-0.2,0.7-0.4,0.8c-0.3,0.2-0.7,0-0.8-0.3c-2.8-7.2,2-20.8,2-20.8c-0.8-0.1-3.9,1.2-6.5,2.4
										c-2.6,1.1-4.4,4.1-4.5,7.2c-0.2,7.9,2.8,17.8,3.5,20c0.1,0.3,0.2,0.7,0,1c-0.2,0.3-0.4,0.4-0.6,0.4c-0.1,0-0.2-0.1-0.4-0.3
										c-5.9-8.5-3.7-25.9-3.7-25.9c-1.5,0.5-5.5,4.9-7.8,7.4c-1.1,1.3-1.7,3-1.4,4.7c1,6.4,6.1,16.4,7.7,19.1
										c0.3,0.4,0.6,0.7,0.2,1.1c-0.3,0.3-0.7,0.5-1,0.4c-0.1,0-0.2-0.1-0.3-0.1c-7.6-7.7-8.3-21.9-8.3-21.9
										c-1.5,1.2-4.6,8-6.1,11.6c-0.7,1.7-0.9,3.6-0.4,5.3c2.1,7,8.5,11.5,11,13.1c0.5,0.3,0.5,0.9,0.1,1.4
										c-0.3,0.3-0.7,0.5-1.1,0.4c-8.7-2.4-11.7-14.2-11.7-14.2s-7.7,18.8,2.1,29.1c9.8,10.3,20,0.1,21.3-3.4
										c0-0.1,0.1-0.3,0.2-0.4c0-0.1,0.1-0.2,0.1-0.2L589.5,318.5C589.6,318.5,589.5,318.5,589.5,318.5z M572.2,345.8
										c2.8-3.3,2.6,4,2.6,4C574.4,351,571.1,347.1,572.2,345.8z M566.1,351.7c0.5-0.8,1.8-0.3,2.3,0.1c0.4,0.4,1.7,2.1,1.2,2.9
										c-0.5,0.8-2.6,0.1-3-0.3C566.1,354,565.5,352.5,566.1,351.7z M563.2,363.5c0.5-0.9,2.8,0.2,3.7,0.8c0.8,0.6,2.5,2.4,2,3.2
										c-0.5,0.9-2.8,0.1-3.7-0.5C564.3,366.5,562.8,364.4,563.2,363.5z M562.5,379.1c-1.1,0.1-2.6-1-2.6-2.5
										c0-1.5,1.7-2.5,2.8-2.6c1.1-0.1,3.6,0.5,3.5,2C566.3,377.5,563.6,379,562.5,379.1z M573.5,361.4c-0.5,0.3-1.4-0.8-1.6-1.4
										c-0.2-0.6-0.2-2.2,0.3-2.5c0.5-0.3,1.3,1,1.5,1.6C573.9,359.7,574.1,361.1,573.5,361.4z M579.2,346
										c-0.2,0.5-0.9,1.4-1.3,1.2c-0.4-0.2-0.2-1.4,0-1.9c0.2-0.5,1-1.4,1.4-1.2C579.7,344.3,579.4,345.6,579.2,346z M581.7,338.9
										c-0.9,0.7-1.6-5.8-0.2-5.7C583.8,333.4,581.7,338.9,581.7,338.9z"/>
									
										<linearGradient id="SVGID_37_" gradientUnits="userSpaceOnUse" x1="570.6065" y1="20.9854" x2="607.4848" y2="20.9854" gradientTransform="matrix(1 0 0 -1 0 377.4118)">
										<stop  offset="2.621188e-04" style="stop-color:#0E4F24"/>
										<stop  offset="0.2351" style="stop-color:#20653F"/>
										<stop  offset="0.5378" style="stop-color:#337C5B"/>
										<stop  offset="0.803" style="stop-color:#3F8A6C"/>
										<stop  offset="1" style="stop-color:#438F72"/>
									</linearGradient>
									<path class="st47" d="M589,381.4c-0.5-0.1-0.8-0.6-0.7-1.2l0,0c0-0.8,0.7-1.4,1.3-1.4c15.7,1.3,16.6-13.3,16.6-13.3
										c-4.8,4.5-16.1,4.9-18.9,5c-0.4,0-0.6-0.3-0.6-0.8c0-0.4,0.4-0.8,0.7-0.8c8.7,0.1,19.2-7,19.2-7c2.1-6.6-0.3-17-0.3-17
										c-8.3,11.5-17.3,13.4-19.4,13.7c-0.3,0-0.5-0.1-0.6-0.4c-0.1-0.5,0.2-1,0.6-1c9.8-1,18.3-15.5,18.3-15.5
										c0.2-3.6-5.1-10.5-5.1-10.5c-3,10-9.7,15.2-11.7,16.6c-0.3,0.2-0.7,0.1-0.8-0.3c-0.1-0.3,0-0.7,0.3-0.9
										c7.1-4.6,10.7-17.1,10.7-17.1c-0.3-2.1-2.1-2.6-4.1-4.7c-1.8-1.9-4.5-5.6-5-6.4c0,0,0,0,0-0.1c0,0-0.1,0-0.1,0L570.8,379
										c0,0,0,0,0,0c-0.1,0.8-2.5,15.7,13.5,15.3c12.7-0.4,18.3-16.9,18.3-16.9C596.5,382.8,591,382,589,381.4z M588.6,351.4
										c0.4-0.1,1.5-0.1,1.5,0.4c0.1,0.5-0.8,1.1-1.2,1.2c-0.4,0.1-1.5,0.3-1.6-0.2C587.2,352.3,588.1,351.5,588.6,351.4z
										 M587.6,340.7c1.4,1-3.1,3.3-3.6,2.3C584,343,585.2,339,587.6,340.7z M579.9,355.2c1-1.3,2.5-2.5,2.8,0
										c0.1,0.8-1,1.5-2,1.8C579.8,357.2,579.3,356,579.9,355.2z M577.5,365.1c0-0.7,1.2-1.2,1.8-1.3s1.2,0.2,1.2,0.9
										c0,0.7-0.6,1.3-1.1,1.3C578.8,366.2,577.5,365.8,577.5,365.1z M579.9,381.6c-0.7,1.1-2.3,1.1-3.1,0.4s-2.1-3.1-1.4-4.2
										c0.7-1.1,2.8-0.2,3.6,0.4S580.6,380.5,579.9,381.6z M581.1,373.6c-0.8,0.3-2.8,0.2-3-0.9c-0.2-1,1.5-2.3,2.3-2.6
										c0.8-0.3,2.9-0.5,3.1,0.6C583.7,371.7,582,373.3,581.1,373.6z M586.2,363.3c-0.3,0-1.4-0.3-1.4-0.8s1.1-0.9,1.4-0.9
										c0.3,0,1.1,0.1,1,0.7C587.2,362.8,586.5,363.3,586.2,363.3z"/>
								</g>
								
									<linearGradient id="SVGID_38_" gradientUnits="userSpaceOnUse" x1="435.0151" y1="39.861" x2="488.0593" y2="-11.6655" gradientTransform="matrix(1 0 0 -1 0 377.4118)">
									<stop  offset="0" style="stop-color:#255B51"/>
									<stop  offset="1" style="stop-color:#112B27"/>
								</linearGradient>
								<path class="st48" d="M418.6,389.8c-5.3-1.4-9.3-6.7-9.3-12.1s4.3-10.6,9.6-11.9s11.4,1.6,13.8,6.5
									c-2.9-6.5-1.1-15,4.7-19.2c5.8-4.2,15-2.8,18.7,3.4c4.6-13.1,19.6-21.5,33.2-18.7c13.6,2.8,24,16.6,23,30.4
									c-1.5-3,1.3-6.5,4.3-7.9c7-3.3,16.4-0.1,20,6.7c3.6,6.9,0.9,16.4-5.8,20.3c-4.6,2.7-10.1,2.8-15.4,2.8
									c-14.6,0.1-29.1,0.3-43.7,0.5c-18.2,0.2-36.4,0.4-54.5-1.6"/>
								<g>
									
										<image style="overflow:visible;opacity:0.35;enable-background:new    ;" width="65" height="82" xlink:href="291E4A57.png"  transform="matrix(1 0 0 1 484 306.7059)">
									</image>
									<g>
										<g>
											
												<linearGradient id="SVGID_39_" gradientUnits="userSpaceOnUse" x1="483.1049" y1="1.7415" x2="535.002" y2="31.7042" gradientTransform="matrix(0.9997 -2.310000e-02 -2.310000e-02 -0.9997 8.1409 375.1609)">
												<stop  offset="0" style="stop-color:#255B51"/>
												<stop  offset="0.801" style="stop-color:#3A7B05"/>
											</linearGradient>
											<path class="st49" d="M500.8,373.6c0.5,0.3,14.6,5.4,18.4,0.4l-9.6-2.4c0,0,11.4,1.8,13.6-1s9.5-12.5,9.5-12.5
												s-9.3,0-10.4-0.5c0,0,8.2-0.3,11.1-6c3-5.8,3-14.6,3-14.6l-7,2.6c0,0,5.4-2.9,4.8-6.5s-3.8-18-2.9-19.5
												c0.8-1.4-9.3,1.4-12.7,4.6c-3.3,3.2,0,9,0,9s-5.2-4.3-6.3-6.3c-1.1-2-7.7,5.9-8.1,6.4c-0.4,0.4,0.4,12.5,1.4,13.9
												c1,1.4-5.8-6-6-8c-0.1-2-5.5,6.7-5,10.7s3.5,11.8,3.5,11.8s-5.1-2.5-6-5.6C491.3,347.1,485.5,363.4,500.8,373.6z"/>
											
												<linearGradient id="SVGID_40_" gradientUnits="userSpaceOnUse" x1="480.5943" y1="5.7285" x2="532.3991" y2="35.6381" gradientTransform="matrix(0.9997 -2.310000e-02 -2.310000e-02 -0.9997 8.1409 375.1609)">
												<stop  offset="0" style="stop-color:#255B51"/>
												<stop  offset="0.801" style="stop-color:#3A7B05"/>
											</linearGradient>
											<path class="st50" d="M492,350.2c0.9,3.1,6,5.6,6,5.6s-3-7.8-3.5-11.8c-0.5-4,4.9-12.7,5-10.7c0.1,2,6.9,9.4,6,8
												c-1-1.4-1.8-13.5-1.4-13.9c0.4-0.4,7-8.3,8.1-6.4s6.3,6.3,6.3,6.3s-3.3-5.8,0-9c2.9-2.8,11-5.3,12.5-4.9l0.2,0.4
												c0,0-32.5,40-29.5,60.4c-0.7-0.2-1.1-0.4-1.2-0.5C485.3,363.5,491.1,347.1,492,350.2z"/>
										</g>
									</g>
								</g>
								<path class="st26" d="M489.2,296.6c11.8,9.9,15.5,22.6,16.5,26.8l0.1-1c0.2-3.5,0.6-7,1-10.5c-10-11.2-12.3-26.5-12.3-26.5
									c9,9.6,11.7,20.3,12.5,24.8c0.3-2.5,0.8-4.9,1.2-7.3c0.1-0.6,0.2-1.1,0.3-1.7c-7.8-11.1-8.7-24.6-8.7-24.6
									c7,9.6,8.6,19.2,9,23.2c0.1-0.5,0.2-1.1,0.3-1.6c0,0,0,0,0,0c0,0,0,0,0-0.1c0.5-2.4,1.1-4.8,1.7-7.1
									c-7.3-10.3-8.2-22.9-8.2-22.9c6.9,9.5,8.2,19,8.4,22.2c0.6-2,1.2-4,1.8-6c0.3-1,0.7-2.1,1-3.1c-3.4-8.2-2.5-16.4-2.5-16.4
									c3.1,7.3,3,13.3,2.8,15.6c1.3-3.6,2.6-7.2,4.2-10.5c0.6-3.1,2.4-9.9,7.9-16c0,0-1.4,10.1-8,17.6c-1,2.2-1.8,4.4-2.7,6.7
									c1-1.5,4.6-5.9,11.4-6.5c0,0-4.4,6.2-11.5,7c-0.7,2-1.4,3.9-2,5.9c-0.4,1.2-0.7,2.4-1.1,3.7c1.3-1.9,6-7.7,14.8-8.5
									c0,0-5.7,8.1-15,9.1c-0.7,2.5-1.3,5.1-1.9,7.7c2.3-2.9,8-8.8,17.8-9.7c0,0-6.9,9.8-18.2,11.2c-0.4,1.7-0.7,3.4-1,5.1
									c-0.3,2-0.7,4-1,6c1.5-2.7,7.6-12.5,20.6-15.5c0,0-7.4,12.8-20.7,16.2c-0.6,4.2-1,8.4-1.3,12.7l0,0.3
									c1.7-3.7,7.7-14.5,20.7-19.8c0,0-6.9,14.9-20.8,20.9l-0.1,1c0,0.4-0.1,0.8-0.1,1.2l0,1.2l-0.1,4.9c-0.1,1.6,0,3.3,0.1,4.9
									l0.1,4.9l-1,0.1l-0.1-5c0-1.6-0.1-3.3,0-5l0.1-5l0-1.2c0-0.4,0-0.8,0.1-1.2l0-0.3C493.1,313.6,489.2,296.6,489.2,296.6z"/>
								<g>
									
										<image style="overflow:visible;opacity:0.64;enable-background:new    ;" width="82" height="123" xlink:href="291E4A47.png"  transform="matrix(1 0 0 1 449 291.7059)">
									</image>
									<g>
										
											<linearGradient id="SVGID_41_" gradientUnits="userSpaceOnUse" x1="449.8028" y1="31.6479" x2="528.228" y2="-16.8061" gradientTransform="matrix(0.9997 -2.310000e-02 -2.310000e-02 -0.9997 8.1409 375.1609)">
											<stop  offset="0" style="stop-color:#C7DC5E"/>
											<stop  offset="0.1181" style="stop-color:#B0CC50"/>
											<stop  offset="0.4096" style="stop-color:#7EAA30"/>
											<stop  offset="0.6642" style="stop-color:#599018"/>
											<stop  offset="0.8696" style="stop-color:#42810A"/>
											<stop  offset="1" style="stop-color:#3A7B05"/>
										</linearGradient>
										<path class="st51" d="M466.2,370.7c-3.1-3.7-6.6-7.2-8.9-11.5c-2.2-4.3-3-9.8-0.4-13.9c2.6-4.1,9.2-5.5,12.4-1.9
											c1.3,1.5,2.5,3.8,4.4,3.3c1.8-0.5,1.9-3,1.2-4.7c-1.2-2.8-3.4-5-5.3-7.3c-2-2.3-3.8-5-4-8c-0.2-3,2.1-6.3,5.1-6.3
											c1.1,0,2.3,0.5,3.4,0.3c1.9-0.4,2.8-2.6,2.6-4.5c-0.2-1.9-1-3.6-1.5-5.5c-1.4-6.5,4.7-13.5,11.4-12.9
											c6.7,0.6,11.5,8.5,9,14.7c-0.8,1.9-2.1,3.6-2.5,5.6c-0.5,2,0.5,4.6,2.5,4.9c2.1,0.3,3.6-1.9,5.5-2.7
											c3.2-1.4,7,1.3,7.9,4.7c0.8,3.4-0.5,6.9-2.4,9.9s-4.2,5.6-5.7,8.7c-0.5,1.1-0.9,2.5-0.1,3.4c1.3,1.5,3.5-0.1,5.3-1
											c4.2-2,9.5,1.2,11.1,5.6c1.6,4.4,0.3,9.3-1.7,13.6l0,0c-3.2,6.8-8.3,12.5-13.3,18c-4.9,5.3-9.2,11.7-14.2,16.8
											c-7.1,7.1-8-4.9-10.1-10C475,383.1,471.1,376.5,466.2,370.7z"/>
									</g>
								</g>
							</g>
							<path class="st52" d="M502.9,356.6c0.2-0.3-0.3-0.5-0.4-0.2c-7.9,13.2-14,27.1-17.8,42c1.4-16.8,1.9-33.6,1.4-50.4
								c0,0,0,0,0,0c2.6-5.6,5.8-10.9,9.5-15.8c0.2-0.3-0.2-0.6-0.4-0.3c-3.6,4.7-6.6,9.7-9.2,15c-0.1-3.7-0.3-7.3-0.5-11
								c-0.4-6.8-0.9-13.5-1.6-20.3c0-0.3-0.5-0.3-0.5,0c0.7,7,1.3,14.1,1.7,21.2c-2.2-2.8-4.3-5.6-6.5-8.3c-0.2-0.2-0.6,0-0.4,0.3
								c2.3,2.9,4.6,5.9,6.9,8.8c0,0,0,0,0,0c0.7,12.5,0.8,25,0.4,37.5c-4.5-8.1-9.7-15.8-15.6-22.9c-0.2-0.2-0.6,0-0.4,0.3
								c6.1,7.3,11.4,15.2,16,23.6c-0.1,3.8-0.3,7.5-0.5,11.3c-0.4,6.7-1,13.4-1.6,20c0,0.3,0.4,0.4,0.5,0.1
								c0.2-2.1,0.4-4.1,0.6-6.2c0,0,0.1-0.1,0.1-0.1C488.1,385.4,494.5,370.6,502.9,356.6z"/>
							<g>
								<path class="st53" d="M540,304.2c0,2.3-1.9,4.2-4.2,4.2s-4.2-1.9-4.2-4.2s1.9-4.2,4.2-4.2S540,301.9,540,304.2z"/>
								<path class="st53" d="M402,361.2c0,2.3-1.9,4.2-4.2,4.2s-4.2-1.9-4.2-4.2s1.9-4.2,4.2-4.2S402,358.9,402,361.2z"/>
								<circle class="st17" cx="398.8" cy="337.2" r="3.5"/>
								<circle class="st17" cx="275.8" cy="309.2" r="3.5"/>
								<circle class="st17" cx="561.7" cy="293.3" r="2.3"/>
								<path class="st10" d="M426.2,313c0,1.9-1.5,3.4-3.4,3.4s-3.4-1.5-3.4-3.4s1.5-3.4,3.4-3.4S426.2,311.1,426.2,313z"/>
								<path class="st10" d="M361.2,361c0,1.9-1.5,3.4-3.4,3.4s-3.4-1.5-3.4-3.4s1.5-3.4,3.4-3.4S361.2,359.1,361.2,361z"/>
								<path class="st10" d="M544.2,361c0,1.9-1.5,3.4-3.4,3.4s-3.4-1.5-3.4-3.4s1.5-3.4,3.4-3.4
									C542.7,357.6,544.2,359.1,544.2,361z"/>
								<path class="st10" d="M450,323.6c0,1-0.8,1.8-1.8,1.8s-1.8-0.8-1.8-1.8c0-1,0.8-1.8,1.8-1.8S450,322.6,450,323.6z"/>
								<path class="st10" d="M544,322.6c0,1-0.8,1.8-1.8,1.8s-1.8-0.8-1.8-1.8c0-1,0.8-1.8,1.8-1.8S544,321.6,544,322.6z"/>
								<path class="st10" d="M382,343.6c0,1-0.8,1.8-1.8,1.8s-1.8-0.8-1.8-1.8c0-1,0.8-1.8,1.8-1.8S382,342.6,382,343.6z"/>
								<path class="st10" d="M309,344.6c0,1-0.8,1.8-1.8,1.8s-1.8-0.8-1.8-1.8c0-1,0.8-1.8,1.8-1.8S309,343.6,309,344.6z"/>
							</g>
						</g>
					</g>
				</g>
				
					<linearGradient id="SVGID_42_" gradientUnits="userSpaceOnUse" x1="410.8194" y1="314.1955" x2="439.6605" y2="264.2415" gradientTransform="matrix(1 0 0 -1 0 377.4118)">
					<stop  offset="0" style="stop-color:#FDFDFE"/>
					<stop  offset="8.960000e-02" style="stop-color:#FDFDFE;stop-opacity:0.9104"/>
					<stop  offset="1" style="stop-color:#FDFDFE;stop-opacity:0"/>
				</linearGradient>
				<path class="st54" d="M416,120.7c0,0-22-47,26-52C442,81.7,414,93.7,416,120.7z"/>
				
					<linearGradient id="SVGID_43_" gradientUnits="userSpaceOnUse" x1="-267.5456" y1="-157.6366" x2="-235.2111" y2="-213.6416" gradientTransform="matrix(0.2826 -1.3216 -0.9779 -0.2091 336.2872 -138.1214)">
					<stop  offset="9.880000e-02" style="stop-color:#FDFDFE"/>
					<stop  offset="0.1608" style="stop-color:#FDFDFE;stop-opacity:0.9104"/>
					<stop  offset="0.79" style="stop-color:#FDFDFE;stop-opacity:0"/>
				</linearGradient>
				<path class="st55" d="M461.7,247.2c0,0-33.8,12.5-28.2-29.3C441.7,219.7,444.2,245.2,461.7,247.2z"/>
				<g>
					
						<linearGradient id="SVGID_44_" gradientUnits="userSpaceOnUse" x1="179.3258" y1="21.8349" x2="311.8211" y2="21.8349" gradientTransform="matrix(1 0 0 -1 0 377.4118)">
						<stop  offset="0" style="stop-color:#255B51"/>
						<stop  offset="1" style="stop-color:#112B27"/>
					</linearGradient>
					<path class="st56" d="M302.3,380.2c5.5-1.3,9.6-6.3,9.5-11.5s-4.4-10.1-9.9-11.3c-5.5-1.2-11.7,1.5-14.2,6.2
						c3-6.2,1.1-14.3-4.8-18.3s-15.5-2.6-19.2,3.2c-4.8-12.4-20.2-20.5-34.1-17.8S205,346.4,206,359.6c1.5-2.9-1.3-6.2-4.4-7.5
						c-7.2-3.1-16.9-0.1-20.6,6.4c-3.7,6.5-0.9,15.6,6,19.3c4.7,2.5,10.4,2.6,15.8,2.7c15,0.1,29.9,0.3,44.9,0.4
						c18.7,0.2,37.4,0.4,56-1.5"/>
					<path class="st26" d="M205.2,350.5c4.8,10.7,13.9,17.1,16.9,19l-0.9-0.3c-2.9-1-5.7-1.8-8.6-2.6c-6.3-10-17.8-16.3-17.8-16.3
						c5.3,8.8,13,13.9,16.4,15.9c-2-0.5-4.1-1-6.1-1.5c-0.5-0.1-1-0.2-1.4-0.3c-6.8-8.5-17.2-13.3-17.2-13.3
						c5.8,7.5,13,11.6,16,13.1c-0.5-0.1-0.9-0.2-1.4-0.3l0,0c0,0,0,0,0,0c-2-0.4-4-0.8-6.1-1.1c-6.3-8-16-12.4-16-12.4
						c5.7,7.5,12.9,11.2,15.4,12.3c-1.8-0.3-3.5-0.5-5.2-0.7c-0.9-0.1-1.8-0.2-2.7-0.3c-5.6-4.8-12.3-6.7-12.3-6.7
						c4.9,4.3,9.8,6.1,11.6,6.7c-3.2-0.3-6.3-0.5-9.4-0.6c-2.6-0.6-8.4-1.5-14.7,0.1c0,0,8.4,2.3,16,0.3c2,0.1,4,0.2,6,0.4
						c-1.4,0.2-5.9,1.1-8.1,5.3c0,0,6-0.9,8.5-5.3c1.7,0.2,3.5,0.4,5.2,0.6c1.1,0.1,2.1,0.3,3.2,0.5c-1.9,0.3-7.6,1.5-10.5,7
						c0,0,7.9-1.2,11-6.9c2.2,0.3,4.4,0.7,6.6,1.1c-2.9,0.5-9,2.4-12.3,8.5c0,0,9.5-1.4,13.5-8.2c1.4,0.3,2.9,0.6,4.3,1
						c1.7,0.4,3.4,0.8,5,1.3c-2.5,0.1-11.8,1-17.6,8.5c0,0,12-0.8,18.1-8.3c3.5,0.9,6.9,2,10.3,3.1l0.2,0.1c-3.4,0-13.4,0.4-21,7.2
						c0,0,13.6,0.2,21.8-6.9l0.9,0.3c0.3,0.1,0.7,0.2,1,0.3l1,0.4l3.9,1.5c1.3,0.5,2.6,1,3.9,1.6l3.8,1.6l0.3-0.6l-3.9-1.6
						c-1.3-0.5-2.6-1.1-3.9-1.6l-4-1.5l-1-0.4c-0.3-0.1-0.7-0.2-1-0.3l-0.3-0.1C217.6,358.4,205.2,350.5,205.2,350.5z"/>
					<g>
						<g>
							<path class="st26" d="M216.9,283.7c2.1,0,5.5,2.1,7.8,6.2c2.3,4.1,2.5,8.2,1.3,9.9c-2-0.3-5.1-2.7-7.3-6.5
								C216.6,289.5,216.1,285.6,216.9,283.7z"/>
						</g>
						<g>
							<path class="st26" d="M236.2,327c-2.3-9.5-5.6-18.8-9.8-27.6l-1,0.5c4.2,8.8,7.5,18,9.7,27.4L236.2,327z"/>
							<g>
								<path class="st26" d="M237.9,295.1c-2,0.4-4.7,3.2-6.2,7.5c-0.7,2.1-1.1,4.2-1.1,5.9c0,1.8,0.3,3.2,0.9,4.1
									c2-0.2,5-2.6,6.7-7C239.8,301.3,239.2,297,237.9,295.1z"/>
								<path class="st26" d="M214.8,306c1.6-1.2,5.4-1.8,9.5-0.1c2.1,0.8,3.7,2,4.9,3.3c1.2,1.3,1.9,2.6,2,3.6
									c-1.7,1.1-5.6,1.1-9.5-0.6C217.7,310.4,215.2,307.8,214.8,306z"/>
							</g>
							<g>
								<path class="st26" d="M219.7,318c1.8-1,5.6-1.2,9.5,0.9c3.9,2,6.2,5.4,6.1,7.5l0,0c-1.8,1-5.6,0.5-9.4-1.6
									C222.1,322.8,219.9,319.9,219.7,318z"/>
								<path class="st26" d="M243.8,309.6c-2.1,0.2-5,2.7-6.9,6.8c-2,4.1-2.3,8-1.3,9.9l0,0c2,0,5.3-2.1,7.4-6.2
									C245,316,244.9,311.6,243.8,309.6z"/>
							</g>
						</g>
						<g>
							<path class="st26" d="M239.8,355.4c-0.2-9.8-1.5-19.6-3.8-29.1l-1.1,0.3c2.3,9.4,3.5,19.1,3.8,28.8L239.8,355.4z"/>
							<g>
								<path class="st26" d="M248.1,324.6c-2.1,0-5.2,2.2-7.6,6.1c-2.4,3.9-3.1,7.7-2.3,9.7c2,0.2,5.5-1.5,8-5.4c1.3-2,2-4,2.2-5.9
									C248.8,327.3,248.6,325.7,248.1,324.6z"/>
								<path class="st26" d="M223.3,330.4c1.8-0.8,5.7-0.6,9.3,1.8c3.7,2.4,5.6,6,5.3,8.2c-1.9,0.8-5.7-0.1-9.2-2.6
									c-1.7-1.2-3.1-2.6-4-3.9C223.8,332.6,223.3,331.4,223.3,330.4z"/>
							</g>
							<g>
								<path class="st26" d="M225.6,343.2c1.9-0.6,5.7,0,9.1,2.8c1.7,1.4,3,3,3.7,4.6c0.7,1.6,1,3,0.8,4.1l0,0
									c-1.9,0.6-5.7-0.7-8.9-3.5C227,348.4,225.5,345.1,225.6,343.2z"/>
								<path class="st26" d="M250.9,340.1c-2.1-0.2-5.4,1.6-8.2,5.2c-1.4,1.8-2.3,3.6-2.9,5.3c-0.6,1.6-0.7,3.1-0.4,4.1l0,0
									c2,0.5,5.6-0.9,8.5-4.5C250.8,346.6,251.6,342.2,250.9,340.1z"/>
							</g>
						</g>
						<g>
							<path class="st26" d="M237.5,384c1.8-9.6,2.6-19.4,2.3-29.2l-1.1,0c0.2,9.7-0.6,19.4-2.3,29L237.5,384z"/>
							<g>
								<path class="st26" d="M252,355.6c-2-0.5-5.6,1-8.7,4.3c-3.2,3.3-4.6,6.9-4.3,9c1.9,0.6,5.7-0.3,9-3.6
									c1.6-1.6,2.8-3.5,3.4-5.3C252,358.4,252.2,356.7,252,355.6z"/>
								<path class="st26" d="M226.5,356.1c2-0.4,5.6,0.6,8.8,3.8c3,3.2,4.2,7.1,3.5,9.1c-2,0.4-5.5-1.3-8.5-4.5
									c-1.5-1.6-2.5-3.2-3.1-4.7C226.5,358.4,226.3,357,226.5,356.1z"/>
							</g>
							<g>
								<path class="st26" d="M226.1,369.1c2-0.2,5.6,1.2,8.3,4.7c2.8,3.5,3.4,7.5,2.6,9.4l0,0c-2,0.1-5.4-1.9-8-5.3
									c-1.3-1.7-2.2-3.5-2.6-5C225.9,371.3,225.8,370,226.1,369.1z"/>
								<path class="st26" d="M251.5,371.3c-2-0.7-5.6,0.5-9.1,3.4c-3.4,2.9-5.4,6.4-5.2,8.5l0,0c1.8,0.8,5.7,0.2,9.3-2.7
									c1.8-1.5,3.1-3.2,3.9-4.9C251.2,374,251.6,372.4,251.5,371.3z"/>
							</g>
						</g>
					</g>
					<path class="st26" d="M273.8,324.8c5.4,7.3,6.2,15.7,6.4,18.5l0.1-0.7c0.4-2.3,0.9-4.5,1.5-6.7c-4.3-8-4.2-18-4.2-18
						c3.9,6.8,4.4,14,4.5,17c0.4-1.6,0.8-3.1,1.3-4.7c0.1-0.4,0.2-0.7,0.3-1.1c-3.2-7.8-2.4-16.5-2.4-16.5
						c2.9,6.7,2.9,13.1,2.7,15.7c0.1-0.3,0.2-0.7,0.3-1h0c0,0,0,0,0,0c0.5-1.5,1-3,1.5-4.5c-3-7.2-2.3-15.4-2.3-15.4
						c2.9,6.6,2.6,12.9,2.5,15c0.5-1.3,1-2.5,1.5-3.8c0.3-0.7,0.5-1.3,0.8-2c-1.1-5.6,0.1-10.8,0.1-10.8c1,4.9,0.4,8.8,0.1,10.3
						c1-2.3,2-4.5,3.2-6.5c0.6-2,2.1-6.2,5.6-9.8c0,0-1.7,6.5-5.8,10.9c-0.7,1.3-1.4,2.7-2,4.1c0.7-0.9,3-3.5,6.6-3.4
						c0,0-2.9,3.7-6.8,3.7c-0.5,1.2-1.1,2.5-1.6,3.7c-0.3,0.8-0.6,1.5-0.9,2.3c0.9-1.1,3.9-4.5,8.6-4.4c0,0-3.7,4.8-8.8,4.8
						c-0.6,1.6-1.2,3.2-1.7,4.8c1.5-1.7,5-5.1,10.3-5c0,0-4.5,5.8-10.6,6c-0.3,1.1-0.7,2.1-1,3.2c-0.4,1.3-0.7,2.6-1,3.9
						c1-1.6,5.2-7.5,12.3-8.6c0,0-5,7.8-12.4,9c-0.7,2.7-1.3,5.4-1.8,8.1l0,0.2c1.2-2.3,5.3-8.8,12.8-11.3c0,0-5,9.2-12.9,12
						l-0.1,0.7c0,0.3-0.1,0.5-0.1,0.8l-0.1,0.8l-0.5,3.2c-0.2,1.1-0.3,2.1-0.4,3.2l-0.4,3.2h-0.5l0.4-3.2c0.1-1.1,0.2-2.1,0.4-3.2
						l0.5-3.2l0.1-0.8c0-0.3,0.1-0.5,0.1-0.8l0-0.2C274.4,336.1,273.8,324.8,273.8,324.8z"/>
					<g>
						
							<image style="overflow:visible;opacity:0.35;enable-background:new    ;" width="64" height="72" xlink:href="291E4A59.png"  transform="matrix(1 0 0 1 190 320.7059)">
						</image>
						<g>
							<g>
								
									<linearGradient id="SVGID_45_" gradientUnits="userSpaceOnUse" x1="234.6306" y1="137.7621" x2="282.1221" y2="137.7621" gradientTransform="matrix(0.9859 0.1673 0.1673 -0.9859 -58.6121 441.1245)">
									<stop  offset="0" style="stop-color:#C7DC5E"/>
									<stop  offset="1" style="stop-color:#3A7B05"/>
								</linearGradient>
								<path class="st57" d="M198.7,327.5c0,0,4.7-0.6,8-0.4c1.5,0.1,2.5,1.5,2.4,3.1l-0.7,5.7c0,0.4,0.2,0.7,0.5,0.8l0,0
									c0.4,0.1,0.7-0.1,0.8-0.6l1.3-8.2c0,0,4.1,2,6.9,3.7c1.1,0.7,1.8,2,1.7,3.4l-0.9,11.1c0,0.3,0.2,0.6,0.5,0.7l0,0
									c0.4,0.1,0.7-0.2,0.7-0.5L221,334c0,0,3.4,2.6,5.5,4.3c1,0.8,1.4,2.1,1,3.3l-3.5,11.9c-0.1,0.3,0,0.6,0.2,0.8l0,0
									c0.3,0.3,0.8,0.1,1-0.3l4.5-13c0,0,2.1,0.4,6.7,6.2c1.3,1.6,1.3,4.1,0,5.7l-4.8,6c-0.3,0.3-0.2,0.8,0,1.1l0,0
									c0.3,0.4,0.8,0.4,1.1,0l6.8-8.4c0,0,3,4.7,1.7,8.5s-1.1,8.6-4.9,9.2s-7.6,0.2-7.6,0.2L200,332.7L198.7,327.5z"/>
								
									<linearGradient id="SVGID_46_" gradientUnits="userSpaceOnUse" x1="234.2533" y1="130.5828" x2="271.618" y2="130.5828" gradientTransform="matrix(0.9859 0.1673 0.1673 -0.9859 -58.6121 441.1245)">
									<stop  offset="0" style="stop-color:#C7DC5E"/>
									<stop  offset="1" style="stop-color:#3A7B05"/>
								</linearGradient>
								<path class="st58" d="M229,369.6l-30.4-42.2c0,0-1.4,5-1.8,8.8c-0.2,1.9,0.7,3.7,2.3,4.4c2.1,1,5.1,2.3,6.5,2.8
									c0.4,0.1,0.6,0.5,0.6,0.9l0,0c0,0.6-0.5,1-1,0.9c-2.4-0.6-8.3-2.2-8.8-3c0,0,1.2,5.6,2,8.9c0.4,1.4,1.4,2.4,2.7,2.7
									c2.8,0.6,8,1.7,10.9,1.6c0.3,0,0.6,0.2,0.6,0.5l0,0c0.1,0.4-0.2,0.8-0.6,0.8c-2.3-0.1-9.1-0.3-11.6-1.2c0,0,1.6,4.4,2.7,7.3
									c0.4,1.1,1.4,1.9,2.5,2c2.4,0.3,6.9,0.5,11.3-1.8c0.4-0.2,0.9-0.1,1.1,0.3l0,0c0.3,0.5,0.1,1.2-0.4,1.5
									c-2.5,1.2-9.4,4-13.2,1.8c0,0,6.3,14,13.3,13.7C224.6,380,226.8,382,229,369.6z"/>
							</g>
						</g>
					</g>
					<g>
						
							<image style="overflow:visible;opacity:0.35;enable-background:new    ;" width="74" height="92" xlink:href="291E4A5B.png"  transform="matrix(1 0 0 1 220 309.7059)">
						</image>
						<g>
							<g>
								
									<linearGradient id="SVGID_47_" gradientUnits="userSpaceOnUse" x1="233.9917" y1="54.6867" x2="263.4505" y2="25.5824" gradientTransform="matrix(1.0011 -7.756684e-03 7.756684e-03 -1.0565 -2.362 394.7884)">
									<stop  offset="2.621188e-04" style="stop-color:#0E4F24"/>
									<stop  offset="0.2351" style="stop-color:#20653F"/>
									<stop  offset="0.5378" style="stop-color:#337C5B"/>
									<stop  offset="0.803" style="stop-color:#3F8A6C"/>
									<stop  offset="1" style="stop-color:#438F72"/>
								</linearGradient>
								<path class="st59" d="M260,316.5C260,316.5,260,316.5,260,316.5c-0.4,0.3-0.8,0.6-1.3,0.9c-1.1,0.7-2.7,1.5-5,2.6
									c-5.2,2.3-2,16.7-1.3,19.8c0.1,0.3,0,0.7-0.3,0.9c-0.3,0.2-0.6,0.1-0.8-0.2c-3.5-6.3-1.1-19.9-1.1-19.9
									c-0.7,0-3.3,1.8-5.5,3.3c-2.1,1.5-3.4,4.5-3,7.5c0.9,7.5,5,16.3,6,18.3c0.1,0.3,0.3,0.6,0.1,0.9c-0.1,0.3-0.3,0.5-0.5,0.4
									c-0.1,0-0.2-0.1-0.4-0.2c-6.5-7-6.9-23.8-6.9-23.8c-1.3,0.8-4.3,5.5-5.9,8.2c-0.8,1.4-1.1,3.1-0.6,4.7
									c1.8,5.8,7.8,14.4,9.6,16.7c0.3,0.4,0.6,0.6,0.4,1c-0.2,0.4-0.5,0.5-0.8,0.5c-0.1,0-0.2,0-0.3-0.1
									c-7.9-6-10.5-19.3-10.5-19.3c-1.1,1.4-3,8.3-3.8,11.9c-0.4,1.7-0.3,3.6,0.4,5.1c2.9,6.3,9.2,9.5,11.7,10.6
									c0.4,0.2,0.6,0.8,0.3,1.3c-0.2,0.4-0.6,0.6-0.9,0.5c-8.1-0.9-12.5-11.5-12.5-11.5s-4.2,19,6,27.1s17.9-3.1,18.5-6.6
									c0-0.1,0.1-0.3,0.1-0.4c0-0.1,0-0.2,0.1-0.2L260,316.5C260,316.5,260,316.5,260,316.5z M248.4,345c2-3.5,2.9,3.4,2.9,3.4
									C251,349.5,247.6,346.3,248.4,345z M243.7,351.6c0.4-0.8,1.6-0.6,2-0.3c0.4,0.3,1.8,1.7,1.4,2.5s-2.3,0.5-2.7,0.2
									C244.1,353.7,243.4,352.4,243.7,351.6z M242.8,363.1c0.3-0.9,2.5-0.3,3.4,0.1s2.5,1.9,2.2,2.7s-2.5,0.6-3.4,0.2
									S242.5,364,242.8,363.1z M244.4,377.9c-1,0.3-2.5-0.5-2.6-1.9c-0.2-1.4,1.2-2.6,2.2-2.9s3.3-0.1,3.5,1.3
									C247.5,375.8,245.4,377.6,244.4,377.9z M251.8,359.5c-0.4,0.4-1.4-0.5-1.6-1.1s-0.5-2-0.1-2.4c0.4-0.4,1.3,0.7,1.5,1.2
									C251.9,357.8,252.2,359.1,251.8,359.5z M254.7,344.1c-0.1,0.5-0.6,1.4-1,1.3c-0.4-0.1-0.4-1.3-0.3-1.8s0.7-1.5,1.1-1.3
									C254.9,342.4,254.8,343.6,254.7,344.1z M255.9,337c-0.7,0.8-2.2-5.2-1-5.4C257,331.4,255.9,337,255.9,337z"/>
								
									<linearGradient id="SVGID_48_" gradientUnits="userSpaceOnUse" x1="393.1769" y1="281.0978" x2="450.8063" y2="249.5273" gradientTransform="matrix(0.7849 0.4591 0.4143 -1.0409 -179.3621 435.0229)">
									<stop  offset="2.621188e-04" style="stop-color:#0E4F24"/>
									<stop  offset="0.2351" style="stop-color:#20653F"/>
									<stop  offset="0.5378" style="stop-color:#337C5B"/>
									<stop  offset="0.803" style="stop-color:#3F8A6C"/>
									<stop  offset="1" style="stop-color:#438F72"/>
								</linearGradient>
								<path class="st60" d="M268.4,375.8c-0.4,0-0.8-0.5-0.8-1l0,0c-0.1-0.7,0.4-1.4,1-1.5c14.3-1.4,13-15.3,13-15.3
									c-3.7,5-13.7,7.3-16.2,7.8c-0.3,0.1-0.6-0.2-0.6-0.6s0.2-0.8,0.5-0.9c7.8-1.3,16.1-9.8,16.1-9.8c0.9-6.6-2.6-16-2.6-16
									c-5.8,12.2-13.6,15.5-15.4,16.1c-0.2,0.1-0.5,0-0.6-0.3c-0.2-0.4,0-1,0.4-1.1c8.6-2.5,14.2-17.6,14.2-17.6c-0.3-3.4-6-9-6-9
									c-1.3,9.9-6.5,15.9-8.2,17.6c-0.3,0.3-0.6,0.2-0.8-0.1c-0.1-0.3-0.1-0.7,0.2-0.9c5.7-5.5,7.1-17.8,7.1-17.8
									c-0.5-2-2.3-2.1-4.4-3.8c-1.9-1.5-4.8-4.5-5.4-5.2c0,0,0,0,0,0c0,0,0,0-0.1,0.1l-8.1,60c0,0,0,0,0,0
									c0,0.7-0.1,15.2,14.2,12.2c11.3-2.4,14-18.9,14-18.9C275.3,375.9,270.3,376,268.4,375.8z M263.8,347.6
									c0.4-0.2,1.3-0.3,1.4,0.1c0.1,0.5-0.6,1.1-0.9,1.4c-0.4,0.2-1.3,0.5-1.4,0C262.7,348.6,263.4,347.8,263.8,347.6z
									 M261.4,337.7c1.4,0.7-2.3,3.6-2.9,2.8C258.5,340.4,259,336.5,261.4,337.7z M256.6,352.6c0.8-1.4,1.9-2.8,2.5-0.4
									c0.2,0.8-0.7,1.5-1.5,2C256.8,354.5,256.1,353.4,256.6,352.6z M255.9,362.3c-0.1-0.6,0.9-1.3,1.4-1.5c0.5-0.2,1.1,0,1.2,0.7
									s-0.3,1.3-0.8,1.4C257.2,363.1,256,362.9,255.9,362.3z M260.3,377.4c-0.5,1.1-1.9,1.4-2.7,0.9s-2.3-2.6-1.8-3.7
									c0.5-1.1,2.5-0.7,3.3-0.2S260.7,376.3,260.3,377.4z M260.3,369.7c-0.7,0.4-2.5,0.6-2.8-0.3c-0.3-1,1-2.4,1.7-2.8
									c0.7-0.4,2.5-0.9,2.8,0S261,369.2,260.3,369.7z M263.3,359.2c-0.3,0.1-1.3,0-1.4-0.5s0.9-1,1.1-1.1s1,0,1,0.5
									C264.2,358.5,263.6,359.2,263.3,359.2z"/>
							</g>
						</g>
					</g>
				</g>
				<circle class="st9" cx="207.5" cy="302.1" r="2.8"/>
				<path class="st10" d="M184.3,329.8c0,1.9-1.5,3.4-3.4,3.4s-3.4-1.5-3.4-3.4s1.5-3.4,3.4-3.4
					C182.8,326.4,184.3,327.9,184.3,329.8z"/>
			</g>
		</g>
	</g>
</g>
<g id="DESIGN_BY_FREEPIK" class="st0">
	<g class="st25">
		<g id="XMLID_57_">
			<g id="XMLID_76_">
				<path id="XMLID_84_" class="st17" d="M318.1,407.3c-0.4,0.4-0.8,0.9-1.1,1.5l-0.5-0.2c-0.1-0.3-0.4-0.5-0.7-0.5
					c-0.3,0-0.6,0.3-0.5,0.7c0,0.3,0.3,0.6,0.7,0.5c0.1,0,0.1,0,0.2,0l0.5,0.2c-0.3,0.5-0.4,1.1-0.5,1.7l0.8,0.1
					c0.2-1.3,0.9-2.5,1.8-3.5L318.1,407.3z"/>
				<path id="XMLID_83_" class="st17" d="M323.6,405c-0.2,0-0.3,0-0.5,0l-0.1-0.6c0.2-0.1,0.3-0.4,0.3-0.6c0-0.4-0.4-0.7-0.8-0.6
					c-0.4,0-0.7,0.4-0.6,0.8c0,0.3,0.2,0.5,0.4,0.6l0.1,0.6c-0.7,0.1-1.4,0.3-2.1,0.6l0.3,0.7c0.9-0.5,1.9-0.7,3-0.7
					c0.5,0,1,0,1.5,0.2l0.2-0.7C324.7,405.1,324.2,405,323.6,405z"/>
				<path id="XMLID_82_" class="st17" d="M330.2,407.6c0.3,0,0.6-0.3,0.5-0.7c0-0.3-0.3-0.6-0.7-0.5c-0.3,0-0.5,0.3-0.5,0.6
					l-0.4,0.4c-0.4-0.4-0.9-0.8-1.4-1.1l-0.4,0.6c1.1,0.7,2,1.7,2.6,2.9l0.7-0.3c-0.3-0.5-0.6-1.1-0.9-1.5l0.4-0.4
					C330.1,407.6,330.1,407.6,330.2,407.6z"/>
				<path id="XMLID_81_" class="st17" d="M323.1,415.3c-0.4,0-0.8,0-1.2,0c-0.9,0-1.7-0.1-2.5-0.2c-0.4-0.1-0.9-0.1-1.3-0.3
					c1,1.9,3.1,3.1,5.4,3.1c2.9,0,5.3-1.9,6-4.5c-0.7,0.5-1.5,0.8-2.5,1.1C325.9,414.9,324.5,415.2,323.1,415.3z"/>
				<path id="XMLID_77_" class="st17" d="M323.6,406.6c-3.4,0-6.1,2.7-6.1,5.9c0,0.4,0,0.9,0.1,1.3c0.7,0.5,2.7,0.9,5.4,0.7
					c2.9-0.2,5.3-1,6.7-2.2c0-0.2,0-0.4,0-0.6C329.3,408.8,326.7,406.6,323.6,406.6z M321.5,413.1c-1,0-1.9-0.8-1.9-1.9
					c0-1,0.8-1.9,1.9-1.9c1,0,1.9,0.8,1.9,1.9S322.5,413.1,321.5,413.1z M326.2,412.2c-0.8,0-1.4-0.6-1.4-1.4s0.6-1.4,1.4-1.4
					s1.4,0.6,1.4,1.4S326.9,412.2,326.2,412.2z"/>
			</g>
			<path id="XMLID_74_" class="st17" d="M339.6,408.4c-0.3-0.1-0.8-0.3-1.4-0.2c-0.5,0.1-0.8,0.3-0.8,1v0.9h2.2v1.7h-2.2v5.5h-1.9
				v-5.5h-1.3v-1.7h1.3v-0.9c0-1.7,0.9-2.8,2.6-2.8c0.6,0,1.2,0.1,1.6,0.3L339.6,408.4z"/>
			<path id="XMLID_72_" class="st17" d="M344.3,411.8c-0.2,0-0.4,0-0.5,0c-0.9,0-1.5,0.5-1.5,1.6v3.9h-1.9v-7.2h1.9v0.8
				c0.5-0.7,1.1-1,2-1c0.4,0,0.9,0.1,1.1,0.3L344.3,411.8z"/>
			<path id="XMLID_69_" class="st17" d="M352,413.6c0,0.2,0,0.5,0,0.6h-5.1c0.2,1,0.9,1.5,1.8,1.5c0.6,0,1.3-0.3,1.8-0.7l1.1,1.2
				c-0.8,0.8-1.9,1.1-3.1,1.1c-2.2,0-3.7-1.5-3.7-3.8c0-2.3,1.5-3.8,3.6-3.8C350.6,409.9,352,411.4,352,413.6z M346.9,413h3.2
				c-0.2-0.9-0.7-1.4-1.6-1.4C347.6,411.5,347,412.1,346.9,413z"/>
			<path id="XMLID_66_" class="st17" d="M359.6,413.6c0,0.2,0,0.5,0,0.6h-5.1c0.2,1,0.9,1.5,1.8,1.5c0.6,0,1.3-0.3,1.8-0.7l1.1,1.2
				c-0.8,0.8-1.9,1.1-3.1,1.1c-2.2,0-3.7-1.5-3.7-3.8c0-2.3,1.5-3.8,3.6-3.8C358.2,409.9,359.6,411.4,359.6,413.6z M354.5,413h3.2
				c-0.2-0.9-0.7-1.4-1.6-1.4C355.2,411.5,354.7,412.1,354.5,413z"/>
			<path id="XMLID_63_" class="st17" d="M368,413.6c0,2.1-1.5,3.8-3.5,3.8c-1,0-1.6-0.4-2.1-0.9v3.7h-1.9v-10.1h1.9v0.8
				c0.5-0.6,1.1-1,2.1-1C366.5,409.9,368,411.5,368,413.6z M362.3,413.6c0,1.1,0.8,2,1.8,2c1.1,0,1.9-0.9,1.9-2s-0.7-2-1.9-2
				C363.1,411.7,362.3,412.5,362.3,413.6z"/>
			<path id="XMLID_60_" class="st17" d="M371.1,407.7c0,0.7-0.5,1.2-1.2,1.2c-0.7,0-1.2-0.5-1.2-1.2s0.5-1.2,1.2-1.2
				C370.5,406.5,371.1,407,371.1,407.7z M370.8,417.2h-1.9v-7.2h1.9V417.2z"/>
			<path id="XMLID_58_" class="st17" d="M374.1,412.6l2.7-2.5h2.4l-3.5,3.4l3.5,3.8h-2.4l-2.7-2.9v2.9h-1.9v-10.7h1.9L374.1,412.6
				L374.1,412.6z"/>
		</g>
		<g>
			<path class="st17" d="M242.4,417.2v-1c-0.5,0.7-1.4,1.2-2.4,1.2c-1.9,0-3.1-1.4-3.1-3.7c0-2.3,1.3-3.7,3.1-3.7
				c1,0,1.8,0.5,2.4,1.3v-3.8h1.1v9.8L242.4,417.2L242.4,417.2z M242.4,415.3V412c-0.4-0.6-1.2-1.1-2.1-1.1c-1.4,0-2.3,1.2-2.3,2.7
				c0,1.6,0.9,2.7,2.3,2.7C241.2,416.4,242,415.9,242.4,415.3z"/>
			<path class="st17" d="M245,413.6c0-2,1.5-3.7,3.5-3.7c2.1,0,3.4,1.7,3.4,3.8v0.3h-5.7c0.1,1.3,1,2.5,2.5,2.5
				c0.8,0,1.6-0.3,2.2-0.9l0.5,0.7c-0.7,0.7-1.6,1.1-2.8,1.1C246.5,417.3,245,415.8,245,413.6z M248.4,410.8c-1.5,0-2.3,1.3-2.3,2.4
				h4.6C250.7,412.1,250,410.8,248.4,410.8z"/>
			<path class="st17" d="M252.6,416.2l0.6-0.8c0.5,0.5,1.4,1,2.3,1c1.1,0,1.7-0.5,1.7-1.2c0-1.7-4.4-0.7-4.4-3.3c0-1.1,1-2,2.6-2
				c1.2,0,2,0.5,2.6,1l-0.5,0.8c-0.4-0.5-1.2-0.9-2.1-0.9c-1,0-1.6,0.5-1.6,1.1c0,1.5,4.4,0.5,4.4,3.3c0,1.2-1,2.1-2.8,2.1
				C254.3,417.3,253.4,417,252.6,416.2z"/>
			<path class="st17" d="M259.5,408.4c0-0.4,0.3-0.8,0.7-0.8c0.4,0,0.8,0.3,0.8,0.8s-0.3,0.7-0.8,0.7
				C259.8,409.1,259.5,408.8,259.5,408.4z M259.7,417.2v-7.1h1.1v7.1H259.7z"/>
			<path class="st17" d="M262.6,419l0.6-0.8c0.6,0.7,1.3,1,2.3,1c1.2,0,2.3-0.6,2.3-2.1v-1c-0.5,0.7-1.4,1.3-2.4,1.3
				c-1.9,0-3.1-1.4-3.1-3.7c0-2.3,1.3-3.7,3.1-3.7c1,0,1.8,0.5,2.4,1.3v-1.1h1.1v6.9c0,2.3-1.6,3.1-3.4,3.1
				C264.3,420,263.4,419.8,262.6,419z M267.7,415.1V412c-0.4-0.6-1.2-1.1-2.1-1.1c-1.4,0-2.3,1.1-2.3,2.7c0,1.5,0.9,2.7,2.3,2.7
				C266.5,416.3,267.4,415.8,267.7,415.1z"/>
			<path class="st17" d="M275.4,417.2v-4.6c0-1.2-0.6-1.6-1.6-1.6c-0.9,0-1.7,0.5-2.1,1.1v5.2h-1.1v-7.1h1.1v1
				c0.5-0.6,1.5-1.2,2.5-1.2c1.5,0,2.3,0.8,2.3,2.3v5L275.4,417.2L275.4,417.2z"/>
			<path class="st17" d="M278,413.6c0-2,1.5-3.7,3.5-3.7c2.1,0,3.4,1.7,3.4,3.8v0.3h-5.7c0.1,1.3,1,2.5,2.5,2.5
				c0.8,0,1.6-0.3,2.2-0.9l0.5,0.7c-0.7,0.7-1.7,1.1-2.8,1.1C279.5,417.3,278,415.8,278,413.6z M281.4,410.8c-1.5,0-2.3,1.3-2.3,2.4
				h4.6C283.7,412.1,283,410.8,281.4,410.8z"/>
			<path class="st17" d="M291.4,417.2v-1c-0.5,0.7-1.4,1.2-2.4,1.2c-1.9,0-3.1-1.4-3.1-3.7c0-2.3,1.3-3.7,3.1-3.7
				c1,0,1.8,0.5,2.4,1.3v-3.8h1.1v9.8L291.4,417.2L291.4,417.2z M291.4,415.3V412c-0.4-0.6-1.3-1.1-2.1-1.1c-1.4,0-2.3,1.2-2.3,2.7
				c0,1.6,0.9,2.7,2.3,2.7C290.1,416.4,291,415.9,291.4,415.3z"/>
			<path class="st17" d="M297.7,417.2v-9.8h1.1v3.8c0.6-0.8,1.4-1.3,2.4-1.3c1.9,0,3.1,1.5,3.1,3.7c0,2.3-1.3,3.7-3.1,3.7
				c-1,0-1.9-0.5-2.4-1.2v1L297.7,417.2L297.7,417.2z M300.9,416.4c1.4,0,2.3-1.2,2.3-2.7c0-1.6-0.9-2.7-2.3-2.7
				c-0.9,0-1.7,0.5-2.1,1.1v3.2C299.2,415.9,300.1,416.4,300.9,416.4z"/>
			<path class="st17" d="M305.5,418.9c0.2,0.1,0.4,0.1,0.6,0.1c0.5,0,0.8-0.2,1-0.8l0.5-1.1l-3-7.1h1.2l2.4,5.8l2.3-5.8h1.2
				l-3.5,8.5c-0.4,1-1.1,1.4-2.1,1.4c-0.2,0-0.6,0-0.8-0.1L305.5,418.9z"/>
		</g>
	</g>
</g>
</svg>
